<svg width="22" height="22" viewBox="0 0 22 22" fill="none" xmlns="http://www.w3.org/2000/svg">
<path opacity="0.4" d="M14.5526 1.79736H7.02077C3.74919 1.79736 1.79883 3.74773 1.79883 7.01931V14.5421C1.79883 17.8227 3.74919 19.7731 7.02077 19.7731H14.5436C17.8152 19.7731 19.7655 17.8227 19.7655 14.5511V7.01931C19.7745 3.74773 17.8242 1.79736 14.5526 1.79736Z" fill="#95DD91"/>
<path d="M11.9188 14.6323C11.748 14.6323 11.5772 14.5694 11.4424 14.4345L8.2697 11.2618C8.00906 11.0012 8.00906 10.5698 8.2697 10.3091L11.4424 7.1364C11.7031 6.87576 12.1345 6.87576 12.3951 7.1364C12.6558 7.39705 12.6558 7.82847 12.3951 8.08912L9.69877 10.7855L12.3951 13.4818C12.6558 13.7425 12.6558 14.1739 12.3951 14.4345C12.2693 14.5694 12.0985 14.6323 11.9188 14.6323Z" fill="#95DD91"/>
</svg>
