<svg width="32" height="32" viewBox="0 0 32 32" fill="none" xmlns="http://www.w3.org/2000/svg">
<path opacity="0.4" d="M16 7.06672V28.44C15.7733 28.44 15.5333 28.4 15.3467 28.2934L15.2933 28.2667C12.7333 26.8667 8.26666 25.4 5.37333 25.0134L4.98666 24.96C3.70666 24.8 2.66666 23.6 2.66666 22.32V6.21338C2.66666 4.62671 3.96 3.42672 5.54666 3.56005C8.34666 3.78672 12.5867 5.20005 14.96 6.68005L15.2933 6.88005C15.4933 7.00005 15.7467 7.06672 16 7.06672Z" fill="#95DD91"/>
<path d="M29.3333 6.22666V22.32C29.3333 23.6 28.2933 24.8 27.0133 24.96L26.5733 25.0133C23.6667 25.4 19.1867 26.88 16.6267 28.2933C16.4533 28.4 16.24 28.44 16 28.44V7.06666C16.2533 7.06666 16.5067 7 16.7067 6.88L16.9333 6.73333C19.3067 5.24 23.56 3.81333 26.36 3.57333H26.44C28.0267 3.44 29.3333 4.62666 29.3333 6.22666Z" fill="#95DD91"/>
<path d="M10.3333 12.3199H7.33334C6.78667 12.3199 6.33334 11.8666 6.33334 11.3199C6.33334 10.7733 6.78667 10.3199 7.33334 10.3199H10.3333C10.88 10.3199 11.3333 10.7733 11.3333 11.3199C11.3333 11.8666 10.88 12.3199 10.3333 12.3199Z" fill="#95DD91"/>
<path d="M11.3333 16.3199H7.33334C6.78667 16.3199 6.33334 15.8666 6.33334 15.3199C6.33334 14.7733 6.78667 14.3199 7.33334 14.3199H11.3333C11.88 14.3199 12.3333 14.7733 12.3333 15.3199C12.3333 15.8666 11.88 16.3199 11.3333 16.3199Z" fill="#95DD91"/>
</svg>
