<svg width="48" height="49" viewBox="0 0 48 49" fill="none" xmlns="http://www.w3.org/2000/svg">
<path d="M41.94 16.6545H36.06C33.52 16.6545 32 15.1345 32 12.5945V6.71454C32 4.17454 33.52 2.65454 36.06 2.65454H41.94C44.48 2.65454 46 4.17454 46 6.71454V12.5945C46 15.1345 44.48 16.6545 41.94 16.6545ZM42.38 10.0345C42.14 9.79454 41.82 9.67454 41.5 9.67454C41.18 9.67454 40.86 9.79454 40.62 10.0345L40.26 10.3945V5.91454C40.26 5.21454 39.7 4.65454 39 4.65454C38.3 4.65454 37.74 5.21454 37.74 5.91454V10.3945L37.38 10.0345C36.9 9.55454 36.1 9.55454 35.62 10.0345C35.14 10.5145 35.14 11.3145 35.62 11.7945L38.12 14.2945C38.22 14.3945 38.36 14.4745 38.5 14.5345C38.54 14.5545 38.58 14.5545 38.62 14.5745C38.72 14.6145 38.82 14.6345 38.94 14.6345C38.98 14.6345 39.02 14.6345 39.06 14.6345C39.2 14.6345 39.32 14.6145 39.46 14.5545C39.48 14.5545 39.48 14.5545 39.5 14.5545C39.64 14.4945 39.76 14.4145 39.86 14.3145C39.88 14.2945 39.88 14.2945 39.9 14.2945L42.4 11.7945C42.88 11.3145 42.88 10.5145 42.38 10.0345Z" fill="#95DD91"/>
<path opacity="0.4" d="M44 16.1946V18.6546H4V15.7346C4 11.1546 7.72 7.45459 12.3 7.45459H32V12.5946C32 15.1346 33.52 16.6546 36.06 16.6546H41.94C42.74 16.6546 43.42 16.5146 44 16.1946Z" fill="#95DD91"/>
<path d="M4 18.6545V33.5745C4 38.1545 7.72 41.8545 12.3 41.8545H35.7C40.28 41.8545 44 38.1545 44 33.5745V18.6545H4ZM16 35.1545H12C11.18 35.1545 10.5 34.4745 10.5 33.6545C10.5 32.8345 11.18 32.1545 12 32.1545H16C16.82 32.1545 17.5 32.8345 17.5 33.6545C17.5 34.4745 16.82 35.1545 16 35.1545ZM29 35.1545H21C20.18 35.1545 19.5 34.4745 19.5 33.6545C19.5 32.8345 20.18 32.1545 21 32.1545H29C29.82 32.1545 30.5 32.8345 30.5 33.6545C30.5 34.4745 29.82 35.1545 29 35.1545Z" fill="#95DD91"/>
</svg>
