<svg width="32" height="33" viewBox="0 0 32 33" fill="none" xmlns="http://www.w3.org/2000/svg">
<path opacity="0.4" d="M29.3332 11.439V22.359C29.3332 27.2123 26.4398 30.1056 21.5865 30.1056H10.4132C5.55984 30.1056 2.6665 27.2123 2.6665 22.359V11.4523L29.3332 11.439Z" fill="#EDEDED"/>
<path d="M11.9999 24.4394C11.8533 24.4394 11.6933 24.3994 11.5599 24.3327C10.5333 23.8127 9.65328 23.0394 9.01328 22.0794C8.47995 21.2794 8.47995 20.2527 9.01328 19.4527C9.65328 18.4927 10.5333 17.7194 11.5599 17.2127C12.0533 16.9594 12.6533 17.1727 12.9066 17.666C13.1599 18.1594 12.9599 18.7594 12.4533 19.0127C11.7333 19.3727 11.1199 19.9194 10.6799 20.586C10.5999 20.706 10.5999 20.866 10.6799 20.9994C11.1199 21.666 11.7333 22.2127 12.4533 22.5727C12.9466 22.826 13.1466 23.426 12.9066 23.9194C12.7199 24.2394 12.3599 24.4394 11.9999 24.4394Z" fill="#EDEDED"/>
<path d="M20.2798 24.4392C19.9065 24.4392 19.5598 24.2392 19.3865 23.8925C19.1331 23.3992 19.3331 22.7992 19.8398 22.5459C20.5598 22.1859 21.1731 21.6392 21.6131 20.9725C21.6931 20.8525 21.6931 20.6925 21.6131 20.5592C21.1731 19.8925 20.5598 19.3459 19.8398 18.9859C19.3465 18.7325 19.1465 18.1325 19.3865 17.6392C19.6398 17.1459 20.2398 16.9459 20.7331 17.1859C21.7598 17.7059 22.6398 18.4792 23.2798 19.4392C23.8131 20.2392 23.8131 21.2659 23.2798 22.0659C22.6398 23.0259 21.7598 23.7992 20.7331 24.3059C20.5731 24.3992 20.4265 24.4392 20.2798 24.4392Z" fill="#EDEDED"/>
<path d="M29.3332 11.1856V11.439L2.6665 11.4523V11.1856C2.6665 6.3323 5.55984 3.43896 10.4132 3.43896H21.5865C26.4398 3.43896 29.3332 6.3323 29.3332 11.1856Z" fill="#EDEDED"/>
</svg>
