<svg width="33" height="32" viewBox="0 0 33 32" fill="none" xmlns="http://www.w3.org/2000/svg">
<path opacity="0.4" d="M20.5 5.33337H12.5C8.82001 5.33337 5.83334 8.32004 5.83334 12V20C5.83334 23.68 8.82001 26.6667 12.5 26.6667H20.5C24.18 26.6667 27.1667 23.68 27.1667 20V12C27.1667 8.32004 24.18 5.33337 20.5 5.33337ZM23.5133 19.0134C23.5133 21.2267 21.7267 23.0134 19.5133 23.0134H13.4867C11.2733 23.0134 9.48668 21.2267 9.48668 19.0134V12.9867C9.48668 10.7734 11.2733 8.98671 13.4867 8.98671H19.5C21.7133 8.98671 23.5 10.7734 23.5 12.9867V19.0134H23.5133Z" fill="#95DD91"/>
<path d="M12.58 3.66663V5.33329H12.5C11.8333 5.33329 11.1933 5.42663 10.58 5.61329V3.66663C10.58 3.11996 11.02 2.66663 11.58 2.66663C12.1267 2.66663 12.58 3.11996 12.58 3.66663Z" fill="#95DD91"/>
<path d="M17.5 3.66663V5.33329H15.5V3.66663C15.5 3.11996 15.9533 2.66663 16.5 2.66663C17.0467 2.66663 17.5 3.11996 17.5 3.66663Z" fill="#95DD91"/>
<path d="M22.4333 3.66663V5.61329C21.82 5.42663 21.1667 5.33329 20.5 5.33329H20.4333V3.66663C20.4333 3.11996 20.8867 2.66663 21.4333 2.66663C21.98 2.66663 22.4333 3.11996 22.4333 3.66663Z" fill="#95DD91"/>
<path d="M29.8333 11.0667C29.8333 11.6267 29.3933 12.0667 28.8333 12.0667H27.1667V12C27.1667 11.3333 27.0733 10.68 26.8867 10.0667H28.8333C29.3933 10.0667 29.8333 10.52 29.8333 11.0667Z" fill="#95DD91"/>
<path d="M29.8333 16C29.8333 16.5467 29.3933 17 28.8333 17H27.1667V15H28.8333C29.3933 15 29.8333 15.44 29.8333 16Z" fill="#95DD91"/>
<path d="M29.8333 20.9333C29.8333 21.48 29.3933 21.9334 28.8333 21.9334H26.8867C27.0733 21.32 27.1667 20.6667 27.1667 20V19.9333H28.8333C29.3933 19.9333 29.8333 20.3733 29.8333 20.9333Z" fill="#95DD91"/>
<path d="M22.4333 26.3867V28.3334C22.4333 28.8801 21.98 29.3334 21.4333 29.3334C20.8867 29.3334 20.4333 28.8801 20.4333 28.3334V26.6667H20.5C21.1667 26.6667 21.82 26.5734 22.4333 26.3867Z" fill="#95DD91"/>
<path d="M17.5133 26.6666V28.3333C17.5133 28.88 17.06 29.3333 16.5133 29.3333C15.9533 29.3333 15.5133 28.88 15.5133 28.3333V26.6666H17.5133Z" fill="#95DD91"/>
<path d="M12.58 26.6667V28.3334C12.58 28.8801 12.1267 29.3334 11.58 29.3334C11.02 29.3334 10.58 28.8801 10.58 28.3334V26.3867C11.1933 26.5734 11.8333 26.6667 12.5 26.6667H12.58Z" fill="#95DD91"/>
<path d="M6.11332 10.0667C5.92666 10.68 5.83332 11.3333 5.83332 12V12.0667H4.16666C3.61999 12.0667 3.16666 11.6267 3.16666 11.0667C3.16666 10.52 3.61999 10.0667 4.16666 10.0667H6.11332V10.0667Z" fill="#95DD91"/>
<path d="M5.83332 15V17H4.16666C3.61999 17 3.16666 16.5467 3.16666 16C3.16666 15.44 3.61999 15 4.16666 15H5.83332Z" fill="#95DD91"/>
<path d="M6.11332 21.9334H4.16666C3.61999 21.9334 3.16666 21.48 3.16666 20.9333C3.16666 20.3733 3.61999 19.9333 4.16666 19.9333H5.83332V20C5.83332 20.6667 5.92666 21.32 6.11332 21.9334Z" fill="#95DD91"/>
<path d="M23.5133 12.9867V19C23.5133 21.2134 21.7267 23 19.5133 23H13.4867C11.2733 23 9.48666 21.2134 9.48666 19V12.9867C9.48666 10.7734 11.2733 8.98669 13.4867 8.98669H19.5C21.7133 8.98669 23.5133 10.7867 23.5133 12.9867Z" fill="#95DD91"/>
</svg>
