<svg width="32" height="32" viewBox="0 0 32 32" fill="none" xmlns="http://www.w3.org/2000/svg">
<path d="M9.33341 10.6667H5.33341C3.86675 10.6667 2.66675 9.46667 2.66675 8.00001V5.33334C2.66675 3.86667 3.86675 2.66667 5.33341 2.66667H9.33341C10.8001 2.66667 12.0001 3.86667 12.0001 5.33334V8.00001C12.0001 9.46667 10.8001 10.6667 9.33341 10.6667Z" fill="#EDEDED"/>
<path d="M27.7333 9.33333H22.9332C22.0532 9.33333 21.3333 8.61332 21.3333 7.73332V5.60002C21.3333 4.72002 22.0532 4 22.9332 4H27.7333C28.6133 4 29.3333 4.72002 29.3333 5.60002V7.73332C29.3333 8.61332 28.6133 9.33333 27.7333 9.33333Z" fill="#EDEDED"/>
<path d="M27.7333 19.3333H22.9332C22.0532 19.3333 21.3333 18.6133 21.3333 17.7333V15.6C21.3333 14.72 22.0532 14 22.9332 14H27.7333C28.6133 14 29.3333 14.72 29.3333 15.6V17.7333C29.3333 18.6133 28.6133 19.3333 27.7333 19.3333Z" fill="#EDEDED"/>
<path opacity="0.37" d="M21.3333 17.6667C21.88 17.6667 22.3333 17.2133 22.3333 16.6667C22.3333 16.12 21.88 15.6667 21.3333 15.6667H17.6667V7.66667H21.3333C21.88 7.66667 22.3333 7.21334 22.3333 6.66667C22.3333 6.12001 21.88 5.66667 21.3333 5.66667H12C11.4533 5.66667 11 6.12001 11 6.66667C11 7.21334 11.4533 7.66667 12 7.66667H15.6667V24C15.6667 26.0267 17.3067 27.6667 19.3333 27.6667H21.3333C21.88 27.6667 22.3333 27.2133 22.3333 26.6667C22.3333 26.12 21.88 25.6667 21.3333 25.6667H19.3333C18.4133 25.6667 17.6667 24.92 17.6667 24V17.6667H21.3333Z" fill="#EDEDED"/>
<path d="M27.7333 29.3333H22.9332C22.0532 29.3333 21.3333 28.6133 21.3333 27.7333V25.6C21.3333 24.72 22.0532 24 22.9332 24H27.7333C28.6133 24 29.3333 24.72 29.3333 25.6V27.7333C29.3333 28.6133 28.6133 29.3333 27.7333 29.3333Z" fill="#EDEDED"/>
</svg>
