<svg width="32" height="33" viewBox="0 0 32 33" fill="none" xmlns="http://www.w3.org/2000/svg">
<path d="M26.6665 19.7725C28.3234 19.7725 29.6665 18.4293 29.6665 16.7725C29.6665 15.1156 28.3234 13.7725 26.6665 13.7725C25.0096 13.7725 23.6665 15.1156 23.6665 16.7725C23.6665 18.4293 25.0096 19.7725 26.6665 19.7725Z" fill="#EDEDED"/>
<path d="M26.6665 9.10596C28.3234 9.10596 29.6665 7.76281 29.6665 6.10596C29.6665 4.4491 28.3234 3.10596 26.6665 3.10596C25.0096 3.10596 23.6665 4.4491 23.6665 6.10596C23.6665 7.76281 25.0096 9.10596 26.6665 9.10596Z" fill="#EDEDED"/>
<path d="M26.6665 30.439C28.3234 30.439 29.6665 29.0958 29.6665 27.439C29.6665 25.7821 28.3234 24.439 26.6665 24.439C25.0096 24.439 23.6665 25.7821 23.6665 27.439C23.6665 29.0958 25.0096 30.439 26.6665 30.439Z" fill="#EDEDED"/>
<path d="M5.3335 19.7725C6.99035 19.7725 8.3335 18.4293 8.3335 16.7725C8.3335 15.1156 6.99035 13.7725 5.3335 13.7725C3.67664 13.7725 2.3335 15.1156 2.3335 16.7725C2.3335 18.4293 3.67664 19.7725 5.3335 19.7725Z" fill="#EDEDED"/>
<path opacity="0.4" d="M25.3332 17.7726C25.8798 17.7726 26.3332 17.3193 26.3332 16.7726C26.3332 16.226 25.8798 15.7726 25.3332 15.7726H15.6665V10.106C15.6665 7.99929 16.5598 7.10596 18.6665 7.10596H25.3332C25.8798 7.10596 26.3332 6.65262 26.3332 6.10596C26.3332 5.55929 25.8798 5.10596 25.3332 5.10596H18.6665C15.4398 5.10596 13.6665 6.87929 13.6665 10.106V15.7726H6.6665C6.11984 15.7726 5.6665 16.226 5.6665 16.7726C5.6665 17.3193 6.11984 17.7726 6.6665 17.7726H13.6665V23.4393C13.6665 26.666 15.4398 28.4393 18.6665 28.4393H25.3332C25.8798 28.4393 26.3332 27.986 26.3332 27.4393C26.3332 26.8926 25.8798 26.4393 25.3332 26.4393H18.6665C16.5598 26.4393 15.6665 25.546 15.6665 23.4393V17.7726H25.3332Z" fill="#EDEDED"/>
</svg>
