<svg width="32" height="33" viewBox="0 0 32 33" fill="none" xmlns="http://www.w3.org/2000/svg">
<path opacity="0.4" d="M16.0002 27.4393C21.8912 27.4393 26.6668 22.6637 26.6668 16.7726C26.6668 10.8816 21.8912 6.10596 16.0002 6.10596C10.1091 6.10596 5.3335 10.8816 5.3335 16.7726C5.3335 22.6637 10.1091 27.4393 16.0002 27.4393Z" fill="#EDEDED"/>
<path d="M15.9998 20.9323C18.2973 20.9323 20.1598 19.0698 20.1598 16.7723C20.1598 14.4748 18.2973 12.6123 15.9998 12.6123C13.7023 12.6123 11.8398 14.4748 11.8398 16.7723C11.8398 19.0698 13.7023 20.9323 15.9998 20.9323Z" fill="#EDEDED"/>
<path d="M17 3.43896V6.15897H16.9867C16.6667 6.11897 16.3333 6.10563 16 6.10563C15.6667 6.10563 15.3333 6.11897 15.0133 6.15897H15V3.43896C15 2.8923 15.4533 2.43896 16 2.43896C16.5467 2.43896 17 2.8923 17 3.43896Z" fill="#EDEDED"/>
<path d="M5.33317 16.7725C5.33317 17.1058 5.3465 17.4525 5.3865 17.7725H2.6665C2.11984 17.7725 1.6665 17.3191 1.6665 16.7725C1.6665 16.2258 2.11984 15.7725 2.6665 15.7725H5.3865C5.3465 16.0925 5.33317 16.4391 5.33317 16.7725Z" fill="#EDEDED"/>
<path d="M17 27.3857V30.1057C17 30.6524 16.5467 31.1057 16 31.1057C15.4533 31.1057 15 30.6524 15 30.1057V27.3857H15.0133C15.3333 27.4257 15.6667 27.4391 16 27.4391C16.3333 27.4391 16.6667 27.4257 16.9867 27.3857H17Z" fill="#EDEDED"/>
<path d="M30.3333 16.7725C30.3333 17.3191 29.8799 17.7725 29.3333 17.7725H26.6133C26.6533 17.4525 26.6666 17.1058 26.6666 16.7725C26.6666 16.4391 26.6533 16.0925 26.6133 15.7725H29.3333C29.8799 15.7725 30.3333 16.2258 30.3333 16.7725Z" fill="#EDEDED"/>
</svg>
