<svg width="28" height="28" viewBox="0 0 16 16" fill="none" xmlns="http://www.w3.org/2000/svg">
<path d="M7.99995 5.91718C6.85308 5.91718 5.91714 6.85311 5.91714 7.99999C5.91714 9.14686 6.85308 10.0828 7.99995 10.0828C9.14683 10.0828 10.0828 9.14686 10.0828 7.99999C10.0828 6.85311 9.14683 5.91718 7.99995 5.91718ZM14.2468 7.99999C14.2468 7.13749 14.2546 6.2828 14.2062 5.42186C14.1578 4.42186 13.9296 3.53436 13.1984 2.80311C12.4656 2.0703 11.5796 1.84374 10.5796 1.7953C9.71714 1.74686 8.86245 1.75468 8.00151 1.75468C7.13901 1.75468 6.28433 1.74686 5.42339 1.7953C4.42339 1.84374 3.53589 2.07186 2.80464 2.80311C2.07183 3.53593 1.84526 4.42186 1.79683 5.42186C1.74839 6.28436 1.7562 7.13905 1.7562 7.99999C1.7562 8.86093 1.74839 9.71718 1.79683 10.5781C1.84526 11.5781 2.07339 12.4656 2.80464 13.1969C3.53745 13.9297 4.42339 14.1562 5.42339 14.2047C6.28589 14.2531 7.14058 14.2453 8.00151 14.2453C8.86401 14.2453 9.7187 14.2531 10.5796 14.2047C11.5796 14.1562 12.4671 13.9281 13.1984 13.1969C13.9312 12.4641 14.1578 11.5781 14.2062 10.5781C14.2562 9.71718 14.2468 8.86249 14.2468 7.99999V7.99999ZM7.99995 11.2047C6.22651 11.2047 4.79526 9.77343 4.79526 7.99999C4.79526 6.22655 6.22651 4.7953 7.99995 4.7953C9.77339 4.7953 11.2046 6.22655 11.2046 7.99999C11.2046 9.77343 9.77339 11.2047 7.99995 11.2047ZM11.3359 5.41249C10.9218 5.41249 10.5875 5.07811 10.5875 4.66405C10.5875 4.24999 10.9218 3.91561 11.3359 3.91561C11.75 3.91561 12.0843 4.24999 12.0843 4.66405C12.0845 4.76237 12.0652 4.85975 12.0276 4.95061C11.99 5.04147 11.9349 5.12403 11.8654 5.19355C11.7959 5.26307 11.7133 5.3182 11.6225 5.35577C11.5316 5.39334 11.4342 5.41261 11.3359 5.41249V5.41249Z" fill="#0F2B0D"/>
</svg>
