<svg width="24" height="24" viewBox="0 0 16 16" fill="none" xmlns="http://www.w3.org/2000/svg">
<path fill-rule="evenodd" clip-rule="evenodd" d="M0.666687 1.89196C0.666687 1.56698 0.795784 1.25531 1.02558 1.02552C1.25537 0.795725 1.56704 0.666628 1.89202 0.666628H14.1067C14.2677 0.666365 14.4273 0.69787 14.5761 0.759339C14.725 0.820808 14.8602 0.911034 14.9742 1.02485C15.0881 1.13867 15.1785 1.27384 15.2401 1.42263C15.3018 1.57143 15.3334 1.73091 15.3334 1.89196V14.1066C15.3335 14.2677 15.3019 14.4272 15.2404 14.5761C15.1789 14.725 15.0886 14.8602 14.9747 14.9742C14.8608 15.0881 14.7256 15.1785 14.5768 15.2401C14.428 15.3017 14.2684 15.3334 14.1074 15.3333H1.89202C1.73105 15.3333 1.57166 15.3016 1.42295 15.24C1.27424 15.1783 1.13913 15.088 1.02534 14.9742C0.911552 14.8603 0.821308 14.7252 0.759769 14.5764C0.698229 14.4277 0.6666 14.2683 0.666687 14.1073V1.89196ZM6.47202 6.25863H8.45802V7.25596C8.74469 6.68263 9.47802 6.16663 10.58 6.16663C12.6927 6.16663 13.1934 7.30863 13.1934 9.40396V13.2853H11.0554V9.88129C11.0554 8.68796 10.7687 8.01463 10.0407 8.01463C9.03069 8.01463 8.61069 8.74063 8.61069 9.88129V13.2853H6.47202V6.25863ZM2.80535 13.194H4.94402V6.16663H2.80535V13.1933V13.194ZM5.25002 3.87463C5.25405 4.05774 5.22147 4.23982 5.15418 4.41017C5.08689 4.58052 4.98625 4.73572 4.85818 4.86665C4.7301 4.99758 4.57715 5.10161 4.40832 5.17263C4.2395 5.24365 4.05818 5.28024 3.87502 5.28024C3.69186 5.28024 3.51055 5.24365 3.34172 5.17263C3.17289 5.10161 3.01995 4.99758 2.89187 4.86665C2.76379 4.73572 2.66315 4.58052 2.59586 4.41017C2.52857 4.23982 2.49599 4.05774 2.50002 3.87463C2.50794 3.5152 2.65628 3.17316 2.91328 2.92175C3.17028 2.67035 3.5155 2.52957 3.87502 2.52957C4.23454 2.52957 4.57976 2.67035 4.83676 2.92175C5.09376 3.17316 5.24211 3.5152 5.25002 3.87463Z" fill="#0F2B0D"/>
</svg>
