<svg width="25" height="25" viewBox="0 0 25 25" fill="none" xmlns="http://www.w3.org/2000/svg">
<path opacity="0.4" d="M9.5 7.97295V17.563C9.5 20.7729 11.5 22.7729 14.7 22.7729H17.29C20.49 22.7729 22.49 20.7729 22.49 17.5729V7.97295C22.5 4.77295 20.5 2.77295 17.3 2.77295H14.7C11.5 2.77295 9.5 4.77295 9.5 7.97295Z" fill="#0F2B0D"/>
<path d="M6.06994 8.89297L2.71994 12.243C2.42994 12.533 2.42994 13.013 2.71994 13.303L6.06994 16.653C6.35994 16.943 6.83994 16.943 7.12994 16.653C7.41994 16.363 7.41994 15.883 7.12994 15.593L5.05994 13.523H15.7499C16.1599 13.523 16.4999 13.183 16.4999 12.773C16.4999 12.363 16.1599 12.023 15.7499 12.023H5.05994L7.12994 9.95297C7.27994 9.80297 7.34994 9.61297 7.34994 9.42297C7.34994 9.23297 7.27994 9.03297 7.12994 8.89297C6.83994 8.59297 6.36994 8.59297 6.06994 8.89297Z" fill="#0F2B0D"/>
</svg>
