<svg width="25" height="24" viewBox="0 0 25 24" fill="none" xmlns="http://www.w3.org/2000/svg">
<path opacity="0.4" d="M9.5 7.2V16.79C9.5 20 11.5 22 14.7 22H17.29C20.49 22 22.49 20 22.49 16.8V7.2C22.5 4 20.5 2 17.3 2H14.7C11.5 2 9.5 4 9.5 7.2Z" fill="#95DD91"/>
<path d="M6.07043 8.12002L2.72043 11.47C2.43043 11.76 2.43043 12.24 2.72043 12.53L6.07043 15.88C6.36043 16.17 6.84043 16.17 7.13043 15.88C7.42043 15.59 7.42043 15.11 7.13043 14.82L5.06043 12.75H15.7504C16.1604 12.75 16.5004 12.41 16.5004 12C16.5004 11.59 16.1604 11.25 15.7504 11.25H5.06043L7.13043 9.18002C7.28043 9.03002 7.35043 8.84002 7.35043 8.65002C7.35043 8.46002 7.28043 8.26002 7.13043 8.12002C6.84043 7.82002 6.37043 7.82002 6.07043 8.12002Z" fill="#95DD91"/>
</svg>
