<svg width="48" height="49" viewBox="0 0 48 49" fill="none" xmlns="http://www.w3.org/2000/svg">
<path opacity="0.4" d="M38 18.6545C38 21.5545 37.14 24.2146 35.66 26.4346C33.5 29.6346 30.08 31.8945 26.1 32.4745C25.42 32.5945 24.72 32.6545 24 32.6545C23.28 32.6545 22.58 32.5945 21.9 32.4745C17.92 31.8945 14.5 29.6346 12.34 26.4346C10.86 24.2146 10 21.5545 10 18.6545C10 10.9145 16.26 4.65454 24 4.65454C31.74 4.65454 38 10.9145 38 18.6545Z" fill="#95DD91"/>
<path d="M42.4999 37.5946L39.1999 38.3746C38.4599 38.5546 37.8799 39.1146 37.7199 39.8546L37.0199 42.7946C36.6399 44.3946 34.5999 44.8746 33.5399 43.6146L23.9999 32.6546L14.4599 43.6346C13.3999 44.8946 11.3599 44.4146 10.9799 42.8146L10.2799 39.8746C10.0999 39.1346 9.51991 38.5546 8.79991 38.3946L5.49991 37.6146C3.97991 37.2546 3.43991 35.3546 4.53991 34.2546L12.3399 26.4546C14.4999 29.6546 17.9199 31.9146 21.8999 32.4946C22.5799 32.6146 23.2799 32.6746 23.9999 32.6746C24.7199 32.6746 25.4199 32.6146 26.0999 32.4946C30.0799 31.9146 33.4999 29.6546 35.6599 26.4546L43.4599 34.2546C44.5599 35.3346 44.0199 37.2346 42.4999 37.5946Z" fill="#95DD91"/>
<path d="M25.1599 12.6145L26.3399 14.9745C26.4999 15.2945 26.9199 15.6145 27.2999 15.6745L29.4399 16.0345C30.7999 16.2545 31.1199 17.2545 30.1399 18.2345L28.4799 19.8945C28.1999 20.1745 28.0399 20.7145 28.1399 21.1145L28.6199 23.1745C28.9999 24.7945 28.1399 25.4345 26.6999 24.5745L24.6999 23.3945C24.3399 23.1745 23.7399 23.1745 23.3799 23.3945L21.3799 24.5745C19.9399 25.4145 19.0799 24.7945 19.4599 23.1745L19.9399 21.1145C20.0199 20.7345 19.8799 20.1745 19.5999 19.8945L17.9399 18.2345C16.9599 17.2545 17.2799 16.2745 18.6399 16.0345L20.7799 15.6745C21.1399 15.6145 21.5599 15.2945 21.7199 14.9745L22.8999 12.6145C23.4799 11.3345 24.5199 11.3345 25.1599 12.6145Z" fill="#95DD91"/>
</svg>
