<svg width="24" height="25" viewBox="0 0 24 25" fill="none" xmlns="http://www.w3.org/2000/svg">
<path opacity="0.4" d="M17.53 8.4243C17.46 8.4143 17.39 8.4143 17.32 8.4243C15.77 8.3743 14.54 7.1043 14.54 5.5443C14.54 3.9543 15.83 2.6543 17.43 2.6543C19.02 2.6543 20.32 3.9443 20.32 5.5443C20.31 7.1043 19.08 8.3743 17.53 8.4243Z" fill="#0F2B0D"/>
<path opacity="0.4" d="M20.7901 15.3542C19.6701 16.1042 18.1001 16.3842 16.6501 16.1942C17.0301 15.3742 17.2301 14.4642 17.2401 13.5042C17.2401 12.5042 17.0201 11.5542 16.6001 10.7242C18.0801 10.5242 19.6501 10.8042 20.7801 11.5542C22.3601 12.5942 22.3601 14.3042 20.7901 15.3542Z" fill="#0F2B0D"/>
<path opacity="0.4" d="M6.4399 8.4243C6.5099 8.4143 6.5799 8.4143 6.6499 8.4243C8.1999 8.3743 9.4299 7.1043 9.4299 5.5443C9.4299 3.9543 8.1399 2.6543 6.5399 2.6543C4.9499 2.6543 3.6499 3.9443 3.6499 5.5443C3.6599 7.1043 4.8899 8.3743 6.4399 8.4243Z" fill="#292D32"/>
<path opacity="0.4" d="M6.55012 13.5044C6.55012 14.4744 6.76012 15.3944 7.14012 16.2244C5.73012 16.3744 4.26012 16.0744 3.18012 15.3644C1.60012 14.3144 1.60012 12.6044 3.18012 11.5544C4.25012 10.8344 5.76012 10.5444 7.18012 10.7044C6.77012 11.5444 6.55012 12.4944 6.55012 13.5044Z" fill="#292D32"/>
<path d="M12.12 16.5243C12.04 16.5143 11.9501 16.5143 11.8601 16.5243C10.0201 16.4643 8.55005 14.9543 8.55005 13.0943C8.55005 11.1943 10.0801 9.6543 11.9901 9.6543C13.8901 9.6543 15.43 11.1943 15.43 13.0943C15.43 14.9543 13.97 16.4643 12.12 16.5243Z" fill="#292D32"/>
<path d="M8.87005 18.5944C7.36005 19.6044 7.36005 21.2644 8.87005 22.2644C10.59 23.4144 13.4101 23.4144 15.1301 22.2644C16.6401 21.2544 16.6401 19.5944 15.1301 18.5944C13.4201 17.4444 10.6 17.4444 8.87005 18.5944Z" fill="#292D32"/>
</svg>
