<svg width="32" height="33" viewBox="0 0 32 33" fill="none" xmlns="http://www.w3.org/2000/svg">
<path fill-rule="evenodd" clip-rule="evenodd" d="M9.08466 0.886561C8.73301 1.05144 2.84052 6.96211 2.70806 7.28281C2.58593 7.57849 2.58593 7.89775 2.70806 8.19343C2.7746 8.35462 3.88095 9.50334 6.31745 11.941L9.83085 15.4562L8.82751 16.4741C7.96493 17.3493 7.81303 17.5329 7.74455 17.7828C7.6615 18.0856 7.69221 18.3724 7.83717 18.6488C7.88226 18.7348 9.30704 20.1887 11.0034 21.8797C14.4382 25.3037 14.2838 25.181 14.955 25.0217C15.2506 24.9516 15.356 24.8665 16.294 23.9409L17.3122 22.9361L20.8279 26.4488C23.2661 28.8849 24.415 29.991 24.5762 30.0576C24.8856 30.1852 25.2266 30.1767 25.5319 30.0335C25.8836 29.8686 31.7761 23.958 31.9085 23.6373C32.0217 23.3631 32.0288 23.1486 31.9357 22.8068C31.8776 22.5933 31.3501 22.0381 28.3258 19.0079L24.784 15.459L25.7302 14.506C26.2507 13.9819 26.7247 13.4566 26.7837 13.339C26.9209 13.0651 26.921 12.6032 26.7839 12.3289C26.635 12.0314 20.7792 6.16785 20.4704 6.00722C20.1666 5.84916 19.7194 5.84084 19.4297 5.98784C19.312 6.04761 18.7863 6.52118 18.2615 7.04021L17.3074 7.98384L13.7589 4.44358C10.7289 1.42072 10.1737 0.893439 9.96018 0.83529C9.60434 0.738438 9.37146 0.752069 9.08466 0.886561ZM12.6027 6.65986L15.6199 9.67704L13.5561 11.7398L11.4922 13.8025L8.49049 10.8018C6.83958 9.15145 5.48878 7.77307 5.48878 7.73874C5.48878 7.67691 9.49221 3.64269 9.55356 3.64269C9.57107 3.64269 10.9432 5.00043 12.6027 6.65986ZM19.3568 17.5074L14.651 22.2126L12.6025 20.1653L10.5541 18.1179L15.2598 13.4127L19.9656 8.70745L22.0141 10.7548L24.0625 12.8022L19.3568 17.5074ZM27.1267 25.2452C26.0092 26.3629 25.0665 27.2774 25.0318 27.2774C24.997 27.2774 23.618 25.9268 21.9674 24.2762L18.9662 21.275L21.0293 19.2115L23.0925 17.148L26.1256 20.1805L29.1586 23.213L27.1267 25.2452ZM0.77579 20.3003C0.452786 20.4198 0.197697 20.6749 0.0718721 21.0042C-0.0450723 21.3106 -0.0182439 22.1268 0.144603 23.2132C0.622324 26.4005 2.58493 29.3333 5.41442 31.0879C7.03626 32.0936 8.73958 32.6183 10.82 32.7531C11.3766 32.7892 11.5401 32.7784 11.7708 32.6903C12.4783 32.4202 12.7492 31.591 12.3366 30.9584C12.073 30.5543 11.8426 30.4621 10.9445 30.401C10.093 30.343 9.78207 30.2937 9.01087 30.0948C5.98376 29.314 3.45182 26.7825 2.67079 23.7559C2.47148 22.9834 2.42258 22.6739 2.36392 21.812C2.31352 21.0715 2.29425 20.9839 2.13134 20.752C1.81334 20.2997 1.26821 20.118 0.77579 20.3003ZM5.24913 20.8464C4.6918 21.1222 4.53302 21.6259 4.67429 22.6701C4.99855 25.0672 6.61876 27.043 8.89705 27.8198C9.40691 27.9936 10.3137 28.1521 10.8003 28.1525C11.4796 28.153 11.9798 27.7267 12.0405 27.0955C12.08 26.6846 11.9706 26.3906 11.6809 26.129C11.411 25.8852 11.1031 25.7776 10.6737 25.7771C10.2372 25.7766 9.45788 25.5537 8.99717 25.2975C8.46848 25.0035 7.76306 24.2982 7.46901 23.7696C7.2128 23.309 6.98985 22.5299 6.98929 22.0934C6.98879 21.6756 6.88454 21.3645 6.65891 21.1076C6.29863 20.6973 5.75412 20.5964 5.24913 20.8464Z" fill="#EDEDED" fill-opacity="0.4"/>
<path d="M12.6027 6.65986L15.6199 9.67704L13.5561 11.7398L11.4922 13.8025L8.49049 10.8018C6.83958 9.15145 5.48878 7.77307 5.48878 7.73874C5.48878 7.67691 9.49221 3.64269 9.55356 3.64269C9.57107 3.64269 10.9432 5.00043 12.6027 6.65986Z" fill="#EDEDED"/>
<path d="M27.1267 25.2452C26.0092 26.3629 25.0665 27.2774 25.0318 27.2774C24.997 27.2774 23.618 25.9268 21.9674 24.2762L18.9662 21.275L21.0293 19.2115L23.0925 17.148L26.1256 20.1805L29.1586 23.213L27.1267 25.2452Z" fill="#EDEDED"/>
</svg>
