<svg width="32" height="32" viewBox="0 0 32 32" fill="none" xmlns="http://www.w3.org/2000/svg">
<path opacity="0.4" d="M14.6133 2.74666L7.28 5.49333C5.88 6.02666 4.73334 7.68 4.73334 9.18666V19.9867C4.73334 21.0667 5.44 22.4933 6.30667 23.1333L13.64 28.6133C14.9333 29.5867 17.0533 29.5867 18.3467 28.6133L25.68 23.1333C26.5467 22.48 27.2533 21.0667 27.2533 19.9867V9.18666C27.2533 7.69333 26.1067 6.02666 24.7067 5.50666L17.3733 2.76C16.6267 2.46666 15.3733 2.46666 14.6133 2.74666Z" fill="#95DD91"/>
<path d="M14.2133 18.9733C13.96 18.9733 13.7067 18.88 13.5067 18.68L11.36 16.5333C10.9733 16.1467 10.9733 15.5067 11.36 15.12C11.7467 14.7333 12.3867 14.7333 12.7733 15.12L14.2133 16.56L19.24 11.5333C19.6267 11.1467 20.2667 11.1467 20.6533 11.5333C21.04 11.92 21.04 12.56 20.6533 12.9467L14.92 18.68C14.72 18.88 14.4667 18.9733 14.2133 18.9733Z" fill="#95DD91"/>
</svg>
