<svg width="48" height="49" viewBox="0 0 48 49" fill="none" xmlns="http://www.w3.org/2000/svg">
<path d="M40 39.1745H21.86C20.96 39.1745 20.22 38.4345 20.22 37.5345C20.22 36.6345 20.96 35.8945 21.86 35.8945H40C40.9 35.8945 41.64 36.6345 41.64 37.5345C41.64 38.4545 40.9 39.1745 40 39.1745Z" fill="#95DD91"/>
<path d="M40 26.5945H21.86C20.96 26.5945 20.22 25.8545 20.22 24.9545C20.22 24.0545 20.96 23.3145 21.86 23.3145H40C40.9 23.3145 41.64 24.0545 41.64 24.9545C41.64 25.8545 40.9 26.5945 40 26.5945Z" fill="#95DD91"/>
<path d="M40 13.9946H21.86C20.96 13.9946 20.22 13.2546 20.22 12.3546C20.22 11.4546 20.96 10.7146 21.86 10.7146H40C40.9 10.7146 41.64 11.4546 41.64 12.3546C41.64 13.2546 40.9 13.9946 40 13.9946Z" fill="#95DD91"/>
<path opacity="0.4" d="M9.82011 16.7146C9.38011 16.7146 8.96011 16.5346 8.66011 16.2346L6.84011 14.4146C6.20011 13.7746 6.20011 12.7346 6.84011 12.0946C7.48011 11.4546 8.52011 11.4546 9.16011 12.0946L9.82011 12.7546L14.1001 8.47463C14.7401 7.83463 15.7801 7.83463 16.4201 8.47463C17.0601 9.11463 17.0601 10.1546 16.4201 10.7946L10.9801 16.2346C10.6601 16.5346 10.2601 16.7146 9.82011 16.7146Z" fill="#95DD91"/>
<path opacity="0.4" d="M9.82011 29.3145C9.40011 29.3145 8.98011 29.1545 8.66011 28.8345L6.84011 27.0145C6.20011 26.3745 6.20011 25.3345 6.84011 24.6945C7.48011 24.0545 8.52011 24.0545 9.16011 24.6945L9.82011 25.3545L14.1001 21.0745C14.7401 20.4345 15.7801 20.4345 16.4201 21.0745C17.0601 21.7145 17.0601 22.7545 16.4201 23.3945L10.9801 28.8345C10.6601 29.1545 10.2401 29.3145 9.82011 29.3145Z" fill="#95DD91"/>
<path opacity="0.4" d="M9.82011 41.3145C9.40011 41.3145 8.98011 41.1545 8.66011 40.8345L6.84011 39.0145C6.20011 38.3745 6.20011 37.3345 6.84011 36.6945C7.48011 36.0545 8.52011 36.0545 9.16011 36.6945L9.82011 37.3545L14.1001 33.0745C14.7401 32.4345 15.7801 32.4345 16.4201 33.0745C17.0601 33.7145 17.0601 34.7545 16.4201 35.3945L10.9801 40.8345C10.6601 41.1545 10.2401 41.3145 9.82011 41.3145Z" fill="#95DD91"/>
</svg>
