<svg width="165" height="65" viewBox="0 0 165 65" fill="none" xmlns="http://www.w3.org/2000/svg">
<path fill-rule="evenodd" clip-rule="evenodd" d="M135.494 21.755C136.683 21.755 137.648 22.7262 137.648 23.9245C137.648 25.1226 136.683 26.0939 135.494 26.0939C134.305 26.0939 133.34 25.1226 133.34 23.9245C133.34 22.7262 134.305 21.755 135.494 21.755Z" fill="#3AAA34"/>
<path d="M135.494 21.755C136.683 21.755 137.648 22.7262 137.648 23.9245C137.648 25.1226 136.683 26.0939 135.494 26.0939C134.305 26.0939 133.34 25.1226 133.34 23.9245C133.34 22.7262 134.305 21.755 135.494 21.755Z" stroke="#419971" stroke-width="0.422434" stroke-miterlimit="22.9256"/>
<path fill-rule="evenodd" clip-rule="evenodd" d="M148.267 22.5826C149.384 22.5826 150.288 23.4942 150.288 24.6183C150.288 25.7426 149.384 26.6541 148.267 26.6541C147.151 26.6541 146.247 25.7426 146.247 24.6183C146.247 23.4942 147.151 22.5826 148.267 22.5826Z" fill="#419971"/>
<path d="M148.267 22.5826C149.384 22.5826 150.288 23.4942 150.288 24.6183C150.288 25.7426 149.384 26.6541 148.267 26.6541C147.151 26.6541 146.247 25.7426 146.247 24.6183C146.247 23.4942 147.151 22.5826 148.267 22.5826Z" stroke="#419971" stroke-width="0.422434" stroke-miterlimit="22.9256"/>
<path fill-rule="evenodd" clip-rule="evenodd" d="M118.532 15.0806C119.701 15.0806 120.649 16.0355 120.649 17.2132C120.649 18.391 119.701 19.3458 118.532 19.3458C117.363 19.3458 116.415 18.391 116.415 17.2132C116.415 16.0355 117.363 15.0806 118.532 15.0806Z" fill="#3AAA34"/>
<path d="M118.532 15.0806C119.701 15.0806 120.649 16.0355 120.649 17.2132C120.649 18.391 119.701 19.3458 118.532 19.3458C117.363 19.3458 116.415 18.391 116.415 17.2132C116.415 16.0355 117.363 15.0806 118.532 15.0806Z" stroke="#419971" stroke-width="0.422434" stroke-miterlimit="22.9256"/>
<path fill-rule="evenodd" clip-rule="evenodd" d="M127.203 16.6641C128.342 16.6641 129.266 17.5944 129.266 18.7419C129.266 19.8892 128.342 20.8195 127.203 20.8195C126.064 20.8195 125.141 19.8892 125.141 18.7419C125.141 17.5944 126.064 16.6641 127.203 16.6641Z" fill="#419971"/>
<path d="M127.203 16.6641C128.342 16.6641 129.266 17.5944 129.266 18.7419C129.266 19.8892 128.342 20.8195 127.203 20.8195C126.064 20.8195 125.141 19.8892 125.141 18.7419C125.141 17.5944 126.064 16.6641 127.203 16.6641Z" stroke="#419971" stroke-width="0.422434" stroke-miterlimit="22.9256"/>
<path fill-rule="evenodd" clip-rule="evenodd" d="M129.131 7.92877C130.435 7.92877 131.493 8.99382 131.493 10.3077C131.493 11.6215 130.435 12.6866 129.131 12.6866C127.827 12.6866 126.77 11.6215 126.77 10.3077C126.77 8.99382 127.827 7.92877 129.131 7.92877Z" fill="#419971"/>
<path d="M129.131 7.92877C130.435 7.92877 131.493 8.99382 131.493 10.3077C131.493 11.6215 130.435 12.6866 129.131 12.6866C127.827 12.6866 126.77 11.6215 126.77 10.3077C126.77 8.99382 127.827 7.92877 129.131 7.92877Z" stroke="#419971" stroke-width="0.422434" stroke-miterlimit="22.9256"/>
<path fill-rule="evenodd" clip-rule="evenodd" d="M145.466 7.51127C146.77 7.51127 147.827 8.57634 147.827 9.89022C147.827 11.2039 146.77 12.269 145.466 12.269C144.161 12.269 143.104 11.2039 143.104 9.89022C143.104 8.57634 144.161 7.51127 145.466 7.51127Z" fill="#3AAA34"/>
<path d="M145.466 7.51127C146.77 7.51127 147.827 8.57634 147.827 9.89022C147.827 11.2039 146.77 12.269 145.466 12.269C144.161 12.269 143.104 11.2039 143.104 9.89022C143.104 8.57634 144.161 7.51127 145.466 7.51127Z" stroke="#419971" stroke-width="0.422434" stroke-miterlimit="22.9256"/>
<path fill-rule="evenodd" clip-rule="evenodd" d="M142.641 18.1549C143.609 18.1549 144.394 18.9456 144.394 19.9209C144.394 20.8965 143.609 21.6873 142.641 21.6873C141.672 21.6873 140.887 20.8965 140.887 19.9209C140.887 18.9456 141.672 18.1549 142.641 18.1549Z" fill="#419971"/>
<path d="M142.641 18.1549C143.609 18.1549 144.394 18.9456 144.394 19.9209C144.394 20.8965 143.609 21.6873 142.641 21.6873C141.672 21.6873 140.887 20.8965 140.887 19.9209C140.887 18.9456 141.672 18.1549 142.641 18.1549Z" stroke="#419971" stroke-width="0.422434" stroke-miterlimit="22.9256"/>
<path fill-rule="evenodd" clip-rule="evenodd" d="M142.176 29.0514C143.235 29.0514 144.093 29.9162 144.093 30.9829C144.093 32.0495 143.235 32.9142 142.176 32.9142C141.117 32.9142 140.259 32.0495 140.259 30.9829C140.259 29.9162 141.117 29.0514 142.176 29.0514Z" fill="#419971"/>
<path d="M142.176 29.0514C143.235 29.0514 144.093 29.9162 144.093 30.9829C144.093 32.0495 143.235 32.9142 142.176 32.9142C141.117 32.9142 140.259 32.0495 140.259 30.9829C140.259 29.9162 141.117 29.0514 142.176 29.0514Z" stroke="#419971" stroke-width="0.422434" stroke-miterlimit="22.9256"/>
<path fill-rule="evenodd" clip-rule="evenodd" d="M120.973 28.3674C122.278 28.3674 123.335 29.4324 123.335 30.746C123.335 32.0598 122.278 33.1249 120.973 33.1249C119.669 33.1249 118.612 32.0598 118.612 30.746C118.612 29.4324 119.669 28.3674 120.973 28.3674Z" fill="#3AAA34"/>
<path d="M120.973 28.3674C122.278 28.3674 123.335 29.4324 123.335 30.746C123.335 32.0598 122.278 33.1249 120.973 33.1249C119.669 33.1249 118.612 32.0598 118.612 30.746C118.612 29.4324 119.669 28.3674 120.973 28.3674Z" stroke="#419971" stroke-width="0.422434" stroke-miterlimit="22.9256"/>
<path fill-rule="evenodd" clip-rule="evenodd" d="M135.759 12.9908C136.788 12.9908 137.622 13.8308 137.622 14.8672C137.622 15.9037 136.788 16.7439 135.759 16.7439C134.73 16.7439 133.896 15.9037 133.896 14.8672C133.896 13.8308 134.73 12.9908 135.759 12.9908Z" fill="#419971"/>
<path d="M135.759 12.9908C136.788 12.9908 137.622 13.8308 137.622 14.8672C137.622 15.9037 136.788 16.7439 135.759 16.7439C134.73 16.7439 133.896 15.9037 133.896 14.8672C133.896 13.8308 134.73 12.9908 135.759 12.9908Z" stroke="#419971" stroke-width="0.422434" stroke-miterlimit="22.9256"/>
<path fill-rule="evenodd" clip-rule="evenodd" d="M153.869 11.1854C154.898 11.1854 155.732 12.0255 155.732 13.0618C155.732 14.0983 154.898 14.9386 153.869 14.9386C152.84 14.9386 152.006 14.0983 152.006 13.0618C152.006 12.0255 152.84 11.1854 153.869 11.1854Z" fill="#419971"/>
<path d="M153.869 11.1854C154.898 11.1854 155.732 12.0255 155.732 13.0618C155.732 14.0983 154.898 14.9386 153.869 14.9386C152.84 14.9386 152.006 14.0983 152.006 13.0618C152.006 12.0255 152.84 11.1854 153.869 11.1854Z" stroke="#419971" stroke-width="0.422434" stroke-miterlimit="22.9256"/>
<path fill-rule="evenodd" clip-rule="evenodd" d="M135.698 4.43802C136.726 4.43802 137.56 5.27829 137.56 6.3146C137.56 7.35107 136.726 8.19116 135.698 8.19116C134.669 8.19116 133.834 7.35107 133.834 6.3146C133.834 5.27829 134.669 4.43802 135.698 4.43802Z" fill="#419971"/>
<path d="M135.698 4.43802C136.726 4.43802 137.56 5.27829 137.56 6.3146C137.56 7.35107 136.726 8.19116 135.698 8.19116C134.669 8.19116 133.834 7.35107 133.834 6.3146C133.834 5.27829 134.669 4.43802 135.698 4.43802Z" stroke="#419971" stroke-width="0.422434" stroke-miterlimit="22.9256"/>
<path fill-rule="evenodd" clip-rule="evenodd" d="M127.975 25.3728C129.004 25.3728 129.838 26.2131 129.838 27.2494C129.838 28.2858 129.004 29.1259 127.975 29.1259C126.946 29.1259 126.112 28.2858 126.112 27.2494C126.112 26.2131 126.946 25.3728 127.975 25.3728Z" fill="#419971"/>
<path d="M127.975 25.3728C129.004 25.3728 129.838 26.2131 129.838 27.2494C129.838 28.2858 129.004 29.1259 127.975 29.1259C126.946 29.1259 126.112 28.2858 126.112 27.2494C126.112 26.2131 126.946 25.3728 127.975 25.3728Z" stroke="#419971" stroke-width="0.422434" stroke-miterlimit="22.9256"/>
<path fill-rule="evenodd" clip-rule="evenodd" d="M122.373 23.2914C123.402 23.2914 124.236 24.1315 124.236 25.1678C124.236 26.2043 123.402 27.0446 122.373 27.0446C121.344 27.0446 120.51 26.2043 120.51 25.1678C120.51 24.1315 121.344 23.2914 122.373 23.2914Z" fill="#419971"/>
<path d="M122.373 23.2914C123.402 23.2914 124.236 24.1315 124.236 25.1678C124.236 26.2043 123.402 27.0446 122.373 27.0446C121.344 27.0446 120.51 26.2043 120.51 25.1678C120.51 24.1315 121.344 23.2914 122.373 23.2914Z" stroke="#419971" stroke-width="0.422434" stroke-miterlimit="22.9256"/>
<path fill-rule="evenodd" clip-rule="evenodd" d="M115.961 23.6418C116.699 23.6418 117.297 24.2444 117.297 24.9879C117.297 25.7311 116.699 26.3337 115.961 26.3337C115.223 26.3337 114.625 25.7311 114.625 24.9879C114.625 24.2444 115.223 23.6418 115.961 23.6418Z" fill="#419971"/>
<path d="M115.961 23.6418C116.699 23.6418 117.297 24.2444 117.297 24.9879C117.297 25.7311 116.699 26.3337 115.961 26.3337C115.223 26.3337 114.625 25.7311 114.625 24.9879C114.625 24.2444 115.223 23.6418 115.961 23.6418Z" stroke="#419971" stroke-width="0.422434" stroke-miterlimit="22.9256"/>
<path fill-rule="evenodd" clip-rule="evenodd" d="M137.318 27.3347C138.056 27.3347 138.654 27.9373 138.654 28.6806C138.654 29.4242 138.056 30.0267 137.318 30.0267C136.58 30.0267 135.981 29.4242 135.981 28.6806C135.981 27.9373 136.58 27.3347 137.318 27.3347Z" fill="#419971"/>
<path d="M137.318 27.3347C138.056 27.3347 138.654 27.9373 138.654 28.6806C138.654 29.4242 138.056 30.0267 137.318 30.0267C136.58 30.0267 135.981 29.4242 135.981 28.6806C135.981 27.9373 136.58 27.3347 137.318 27.3347Z" stroke="#419971" stroke-width="0.422434" stroke-miterlimit="22.9256"/>
<path fill-rule="evenodd" clip-rule="evenodd" d="M158.626 18.8777C159.364 18.8777 159.962 19.4803 159.962 20.2237C159.962 20.9671 159.364 21.5696 158.626 21.5696C157.888 21.5696 157.29 20.9671 157.29 20.2237C157.29 19.4803 157.888 18.8777 158.626 18.8777Z" fill="#419971"/>
<path d="M158.626 18.8777C159.364 18.8777 159.962 19.4803 159.962 20.2237C159.962 20.9671 159.364 21.5696 158.626 21.5696C157.888 21.5696 157.29 20.9671 157.29 20.2237C157.29 19.4803 157.888 18.8777 158.626 18.8777Z" stroke="#419971" stroke-width="0.422434" stroke-miterlimit="22.9256"/>
<path fill-rule="evenodd" clip-rule="evenodd" d="M157.725 26.9122C158.754 26.9122 159.588 27.7525 159.588 28.7887C159.588 29.8252 158.754 30.6655 157.725 30.6655C156.696 30.6655 155.862 29.8252 155.862 28.7887C155.862 27.7525 156.696 26.9122 157.725 26.9122Z" fill="#3AAA34"/>
<path d="M157.725 26.9122C158.754 26.9122 159.588 27.7525 159.588 28.7887C159.588 29.8252 158.754 30.6655 157.725 30.6655C156.696 30.6655 155.862 29.8252 155.862 28.7887C155.862 27.7525 156.696 26.9122 157.725 26.9122Z" stroke="#419971" stroke-width="0.422434" stroke-miterlimit="22.9256"/>
<path fill-rule="evenodd" clip-rule="evenodd" d="M121.477 8.97124C122.215 8.97124 122.813 9.57375 122.813 10.3172C122.813 11.0607 122.215 11.6632 121.477 11.6632C120.739 11.6632 120.141 11.0607 120.141 10.3172C120.141 9.57375 120.739 8.97124 121.477 8.97124Z" fill="#419971"/>
<path d="M121.477 8.97124C122.215 8.97124 122.813 9.57375 122.813 10.3172C122.813 11.0607 122.215 11.6632 121.477 11.6632C120.739 11.6632 120.141 11.0607 120.141 10.3172C120.141 9.57375 120.739 8.97124 121.477 8.97124Z" stroke="#419971" stroke-width="0.422434" stroke-miterlimit="22.9256"/>
<path fill-rule="evenodd" clip-rule="evenodd" d="M139.666 35.3949C140.148 35.3949 140.538 35.7883 140.538 36.2735C140.538 36.7587 140.148 37.152 139.666 37.152C139.184 37.152 138.794 36.7587 138.794 36.2735C138.794 35.7883 139.184 35.3949 139.666 35.3949Z" fill="#419971"/>
<path d="M139.666 35.3949C140.148 35.3949 140.538 35.7883 140.538 36.2735C140.538 36.7587 140.148 37.152 139.666 37.152C139.184 37.152 138.794 36.7587 138.794 36.2735C138.794 35.7883 139.184 35.3949 139.666 35.3949Z" stroke="#419971" stroke-width="0.422434" stroke-miterlimit="22.9256"/>
<path fill-rule="evenodd" clip-rule="evenodd" d="M152.204 32.6733C152.685 32.6733 153.076 33.0667 153.076 33.5518C153.076 34.037 152.685 34.4304 152.204 34.4304C151.722 34.4304 151.332 34.037 151.332 33.5518C151.332 33.0667 151.722 32.6733 152.204 32.6733Z" fill="#419971"/>
<path d="M152.204 32.6733C152.685 32.6733 153.076 33.0667 153.076 33.5518C153.076 34.037 152.685 34.4304 152.204 34.4304C151.722 34.4304 151.332 34.037 151.332 33.5518C151.332 33.0667 151.722 32.6733 152.204 32.6733Z" stroke="#419971" stroke-width="0.422434" stroke-miterlimit="22.9256"/>
<path d="M116.272 23.6786L117.883 19.296" stroke="#419971" stroke-width="0.422434" stroke-miterlimit="22.9256"/>
<path d="M119.315 19.1747L121.522 23.4977" stroke="#419971" stroke-width="0.422434" stroke-miterlimit="22.9256"/>
<path d="M120.58 17.7556L125.25 18.4374" stroke="#419971" stroke-width="0.422434" stroke-miterlimit="22.9256"/>
<path d="M119.399 15.18L120.956 11.5574" stroke="#419971" stroke-width="0.422434" stroke-miterlimit="22.9256"/>
<path d="M122.249 11.4157L126.081 17.0847" stroke="#419971" stroke-width="0.422434" stroke-miterlimit="22.9256"/>
<path d="M128.529 12.6084L127.741 16.7355" stroke="#419971" stroke-width="0.422434" stroke-miterlimit="22.9256"/>
<path d="M122.812 10.3172L126.769 10.3077" stroke="#419971" stroke-width="0.422434" stroke-miterlimit="22.9256"/>
<path d="M131.099 8.99298L134.144 7.35166" stroke="#419971" stroke-width="0.422434" stroke-miterlimit="22.9256"/>
<path d="M137.343 7.19379L143.265 9.02472" stroke="#419971" stroke-width="0.422434" stroke-miterlimit="22.9256"/>
<path d="M147.633 10.8362L152.114 12.4321" stroke="#419971" stroke-width="0.422434" stroke-miterlimit="22.9256"/>
<path d="M154.738 14.7222L158.034 19.0165" stroke="#419971" stroke-width="0.422434" stroke-miterlimit="22.9256"/>
<path d="M158.476 21.5614L158.056 26.9417" stroke="#419971" stroke-width="0.422434" stroke-miterlimit="22.9256"/>
<path d="M144.726 12.1503L142.481 18.3315" stroke="#419971" stroke-width="0.422434" stroke-miterlimit="22.9256"/>
<path d="M144.085 19.221L152.276 14.0355" stroke="#419971" stroke-width="0.422434" stroke-miterlimit="22.9256"/>
<path d="M153.011 14.8341L148.661 22.7081" stroke="#419971" stroke-width="0.422434" stroke-miterlimit="22.9256"/>
<path d="M150.01 23.7258L157.371 20.6882" stroke="#419971" stroke-width="0.422434" stroke-miterlimit="22.9256"/>
<path d="M135.697 8.19106L135.742 12.9908" stroke="#419971" stroke-width="0.422434" stroke-miterlimit="22.9256"/>
<path d="M137.171 13.6431L143.456 11.1415" stroke="#419971" stroke-width="0.422434" stroke-miterlimit="22.9256"/>
<path d="M133.819 22.561L128.847 19.9966" stroke="#419971" stroke-width="0.422434" stroke-miterlimit="22.9256"/>
<path d="M135.597 16.7369L135.494 21.755" stroke="#419971" stroke-width="0.422434" stroke-miterlimit="22.9256"/>
<path d="M129.031 17.7795L134.009 15.5126" stroke="#419971" stroke-width="0.422434" stroke-miterlimit="22.9256"/>
<path d="M140.992 20.9195L137.44 22.7481" stroke="#419971" stroke-width="0.422434" stroke-miterlimit="22.9256"/>
<path d="M149.785 25.9626L155.942 28.2429" stroke="#419971" stroke-width="0.422434" stroke-miterlimit="22.9256"/>
<path d="M126.068 20.6089L123.607 23.762" stroke="#419971" stroke-width="0.422434" stroke-miterlimit="22.9256"/>
<path d="M116.725 26.0924L119.467 28.7715" stroke="#419971" stroke-width="0.422434" stroke-miterlimit="22.9256"/>
<path d="M141.896 21.6553L137.821 27.7714" stroke="#419971" stroke-width="0.422434" stroke-miterlimit="22.9256"/>
<path d="M138.578 28.2326L146.312 25.5571" stroke="#419971" stroke-width="0.422434" stroke-miterlimit="22.9256"/>
<path d="M136.105 26.0915L136.709 27.4822" stroke="#419971" stroke-width="0.422434" stroke-miterlimit="22.9256"/>
<path d="M143.574 29.5092L147.199 26.3463" stroke="#419971" stroke-width="0.422434" stroke-miterlimit="22.9256"/>
<path d="M144.021 31.5501L151.377 33.27" stroke="#419971" stroke-width="0.422434" stroke-miterlimit="22.9256"/>
<path d="M141.571 32.6664L140.189 35.5705" stroke="#419971" stroke-width="0.422434" stroke-miterlimit="22.9256"/>
<path d="M156.439 30.3372L152.838 32.9487" stroke="#419971" stroke-width="0.422434" stroke-miterlimit="22.9256"/>
<path d="M151.452 33.999L140.504 36.517" stroke="#419971" stroke-width="0.422434" stroke-miterlimit="22.9256"/>
<path d="M124.072 25.9372L126.151 26.8646" stroke="#419971" stroke-width="0.422434" stroke-miterlimit="22.9256"/>
<path d="M133.616 24.9881L129.734 26.5089" stroke="#419971" stroke-width="0.422434" stroke-miterlimit="22.9256"/>
<path fill-rule="evenodd" clip-rule="evenodd" d="M136.771 1.00003C151.809 1.00003 164 13.2805 164 28.4286C164 43.5768 151.809 55.8572 136.771 55.8572C121.733 55.8572 109.542 43.5768 109.542 28.4286C109.542 13.2805 121.733 1.00003 136.771 1.00003ZM132.112 33.7918C132.631 31.235 133.269 28.4967 134.345 26.2004C132.228 27.356 131.129 32.3133 130.784 34.3697C130.299 32.8981 129.521 29.8234 128.098 29.1619C128.901 32.1761 129.543 33.1235 129.57 36.5175C129.459 36.2533 128.974 35.6226 128.274 34.8885C126.967 33.519 125.089 32.26 123.33 31.8825C122.953 32.2236 129.685 34.8254 129.901 44.5573C130.021 49.9279 127.509 54.1558 122.009 50.1131C115.268 45.1587 110.607 37.4637 110.607 28.4397C110.607 13.8839 122.321 2.08367 136.771 2.08367C151.221 2.08367 162.935 13.8839 162.935 28.4397C162.935 38.8373 156.957 47.8291 148.275 52.1178C147.543 52.4793 146.791 52.8062 146.024 53.1001C136.734 56.6574 132.997 51.6836 133.455 45.0034C133.948 37.8142 135.564 36.2657 140.225 31.8586C136.059 32.8435 134.057 36.1298 133.172 36.7037C133.514 35.0044 134.073 33.7563 135.312 31.8619C136.16 30.5641 136.359 30.4213 136.529 30.0247C134.567 30.6239 133.181 32.412 132.393 34.0914C131.916 35.1063 132.025 34.2252 132.112 33.7918Z" fill="#419971"/>
<path d="M136.771 1.00003C151.809 1.00003 164 13.2805 164 28.4286C164 43.5768 151.809 55.8572 136.771 55.8572C121.733 55.8572 109.542 43.5768 109.542 28.4286C109.542 13.2805 121.733 1.00003 136.771 1.00003ZM132.112 33.7918C132.631 31.235 133.269 28.4967 134.345 26.2004C132.228 27.356 131.129 32.3133 130.784 34.3697C130.299 32.8981 129.521 29.8234 128.098 29.1619C128.901 32.1761 129.543 33.1235 129.57 36.5175C129.459 36.2533 128.974 35.6226 128.274 34.8885C126.967 33.519 125.089 32.26 123.33 31.8825C122.953 32.2236 129.685 34.8254 129.901 44.5573C130.021 49.9279 127.509 54.1558 122.009 50.1131C115.268 45.1587 110.607 37.4637 110.607 28.4397C110.607 13.8839 122.321 2.08367 136.771 2.08367C151.221 2.08367 162.935 13.8839 162.935 28.4397C162.935 38.8373 156.957 47.8291 148.275 52.1178C147.543 52.4793 146.791 52.8062 146.024 53.1001C136.734 56.6574 132.997 51.6836 133.455 45.0034C133.948 37.8142 135.564 36.2657 140.225 31.8586C136.059 32.8435 134.057 36.1298 133.172 36.7037C133.514 35.0044 134.073 33.7563 135.312 31.8619C136.16 30.5641 136.359 30.4213 136.529 30.0247C134.567 30.6239 133.181 32.412 132.393 34.0914C131.916 35.1063 132.025 34.2252 132.112 33.7918Z" stroke="#419971" stroke-width="0.422434" stroke-miterlimit="22.9256"/>
<path fill-rule="evenodd" clip-rule="evenodd" d="M44.2061 22.0974C42.9091 22.8019 41.2002 24.3618 41.182 27.6858C41.1525 33.0536 41.1941 37.4564 41.1941 37.4564C45.2227 37.4471 49.226 37.4555 53.2716 37.4403C53.2716 37.4403 53.3134 33.0375 53.2837 27.6699C53.2655 24.3457 51.5569 22.786 50.2596 22.0815C48.821 21.2999 45.6979 21.2874 44.2061 22.0974ZM47.2577 22.7676C50.4247 23.8133 50.3686 26.5628 50.3687 26.5701L50.4482 36.5216L49.8307 36.5251L49.8308 36.5179L44.0175 36.5376L44.097 26.5862C44.0971 26.5784 44.0405 23.8009 47.2577 22.7676Z" fill="#419971"/>
<path fill-rule="evenodd" clip-rule="evenodd" d="M103.73 33.885C104.052 33.2168 104.232 32.5046 104.221 31.7933L104.211 31.2011V21.5803L101.573 21.6018L101.537 31.9977C101.522 37.8456 95.037 37.8539 95.0221 32.0011L94.986 21.6051L92.3475 21.5836V31.2044L92.3379 31.7966C92.3251 32.5921 92.5521 33.3886 92.9484 34.1238C95.4088 38.6867 101.451 38.6206 103.73 33.885Z" fill="#419971"/>
<path fill-rule="evenodd" clip-rule="evenodd" d="M94.4671 33.9062C94.7886 33.2378 94.9685 32.5258 94.9573 31.8145L94.9478 31.2223V21.6014L92.3093 21.623L92.2732 32.0187C92.2583 37.8667 85.7736 37.8749 85.7588 32.0222L85.7226 21.6263L83.0841 21.6048V31.2256L83.0747 31.8178C83.0617 32.6133 83.2887 33.4096 83.6852 34.1449C86.1455 38.7079 92.1881 38.6418 94.4671 33.9062Z" fill="#419971"/>
<path fill-rule="evenodd" clip-rule="evenodd" d="M77.4588 33.8395C76.3819 29.0529 75.0895 23.2164 74.8105 21.9969L74.722 21.6504H67.7915V22.7265H72.3112L72.3437 22.8496L74.6922 33.5512C75.5044 37.252 78.189 37.7082 81.1039 37.2621C82.8151 37.0002 84.3573 35.7293 85.2898 33.7911C85.6114 33.1228 85.7915 32.4107 85.7803 31.6994L85.7708 31.1072L85.7025 25.8756L83.0639 25.8971L83.0962 31.9038C83.0853 36.097 78.5077 38.5019 77.4588 33.8395Z" fill="#419971"/>
<path fill-rule="evenodd" clip-rule="evenodd" d="M74.7648 35.6365H65.8979V36.7128H74.7648V35.6365Z" fill="#419971"/>
<path fill-rule="evenodd" clip-rule="evenodd" d="M55.1164 41.2246L54.999 42.3487C57.3742 42.6618 59.8799 41.4782 61.1732 38.7906C61.495 38.1222 61.6749 37.4102 61.6637 36.6989L61.6541 36.1067V21.6031L59.0156 21.6246L58.9794 36.9033C58.9712 40.1925 56.9158 41.6342 55.1164 41.2246Z" fill="#419971"/>
<path fill-rule="evenodd" clip-rule="evenodd" d="M101.347 39.1656L97.2339 40.8613L97.4372 41.3605L101.55 39.6647L101.347 39.1656Z" fill="#419971"/>
<path d="M18.2607 53.1319C19.253 52.7469 19.717 51.8675 19.717 50.8087C19.717 49.5217 18.9456 48.4542 18.098 47.5784L17.6683 47.1249H16.7711C16.1901 47.8193 15.5774 48.4946 15.1398 49.2983C14.8603 49.829 14.71 50.3722 14.71 50.9585C14.71 51.6559 14.9313 52.2291 15.3735 52.6655C15.7991 53.102 16.4208 53.3287 17.201 53.3287C17.5973 53.3287 17.9479 53.2688 18.2607 53.1319ZM17.0507 52.4089C16.631 52.4089 16.1922 52.2665 15.9033 51.9424C15.2973 51.3743 15.3612 50.426 15.7281 49.7391C15.9033 49.3753 16.1996 48.9689 16.6085 48.4982L17.0966 47.9249H17.1676L17.7434 48.5453C18.169 48.9817 18.4777 49.3925 18.6863 49.7391C18.8782 50.0984 18.9784 50.4621 18.9784 50.8087C18.9784 51.2921 18.8323 51.6858 18.5236 51.9724C18.2149 52.2591 17.831 52.4089 17.3469 52.4089H17.0507ZM19.4791 56.8029C20.2462 56.8029 20.9871 56.8135 21.7029 56.4692C23.6626 55.5979 23.7538 53.38 23.6181 51.4889C23.5722 51.0954 23.5262 50.7017 23.4554 50.3123L23.2343 48.8149L22.4832 48.9689L22.7919 50.7958C22.8378 51.0825 22.8795 51.382 22.9088 51.6986C22.9639 52.7998 23.004 54.0264 22.308 54.946C21.7525 55.6659 20.8027 55.8788 19.9506 55.8788H19.4791V56.8029ZM28.1202 53.179C29.0791 53.179 29.7846 52.8901 29.8893 51.8184H29.9601C30.3637 52.7555 30.8146 53.179 31.8461 53.179L32.0797 52.9393V52.2591C31.823 52.2591 31.5569 52.2772 31.3161 52.1693C30.9605 52.0097 30.7217 51.5763 30.5651 51.2323C30.4483 50.9755 30.3147 50.6589 30.1812 50.2526L28.6208 45.7685L27.8572 46.0552L29.3593 50.3252C29.4594 50.6418 29.5346 50.8857 29.5804 51.0354C29.6868 51.4171 29.6868 51.862 29.301 52.0752C29.0797 52.1992 28.6792 52.2591 28.1202 52.2591H25.4998V51.0654H24.7655V52.2291C24.7655 52.8244 25.0956 53.179 25.6793 53.179H28.1202ZM31.8461 53.179C32.4351 53.2086 36.2027 53.1479 36.528 52.9993C36.8784 52.8753 37.1873 52.6527 37.4667 52.3318L37.9674 52.6527C38.6893 53.119 39.3695 53.3586 40.0286 53.3586C41.0128 53.3586 41.5637 52.8572 41.7685 51.8826H41.8395C42.067 52.9275 42.7569 53.3586 43.7671 53.3586C45.108 53.3586 45.6947 52.4109 45.6947 51.1253C45.6947 50.9284 45.6822 50.6888 45.6656 50.4021C45.653 50.1156 45.6238 49.829 45.5779 49.5251L45.4778 48.7422L44.7392 48.832C44.8178 49.3782 44.9121 49.9289 44.9478 50.4793C44.9735 50.994 45.0611 51.7164 44.6976 52.1222C44.5056 52.3318 44.226 52.4388 43.8881 52.4388C43.4386 52.4388 43.024 52.4444 42.7365 52.0152C42.5488 51.7457 42.4444 51.3093 42.4444 50.7189V49.4224H41.706V50.7189C41.706 51.352 41.5891 51.7885 41.3388 52.0451C40.8439 52.5526 39.8754 52.4931 39.2483 52.3019C38.7501 52.1567 38.3715 51.8946 37.9382 51.6258C37.9905 51.5417 38.0552 51.446 38.0885 51.352L38.8979 49.7391L38.2929 49.4224L37.5126 50.9884C37.3959 51.2323 37.279 51.429 37.1747 51.5959C36.8551 52.0409 36.2087 52.1913 35.5919 52.2359C35.2571 52.26 32.346 52.2591 32.0797 52.2591L31.8461 52.4987V53.179Z" fill="#419971"/>
<path d="M86.3818 52.6127H87.1681V43.2463H86.3818V52.6127ZM87.4161 56.1724C88.1557 56.1724 88.8311 56.1802 89.5392 55.9034C91.0019 55.3402 91.4844 54.0498 91.6162 52.6127H92.6968L92.9365 52.3774V51.7091H91.6289C91.6162 51.3981 91.5869 51.0872 91.5532 50.7593C91.4489 49.946 91.3229 49.1365 91.2 48.3259L90.4433 48.4771L90.7544 50.2717C90.8006 50.5533 90.8426 50.8475 90.8722 51.1585C90.9276 52.2402 90.9681 53.4451 90.2667 54.3485C89.707 55.0557 88.7499 55.2646 87.8911 55.2646H87.4161V56.1724ZM92.7011 52.6127H94.702C96.5268 52.6127 97.4476 51.8099 97.4476 50.1961C97.4476 49.9607 97.4307 49.675 97.4013 49.3639C97.3274 48.5827 97.1919 47.7993 97.0733 47.023L96.3334 47.1407C96.4602 47.9179 96.5954 48.6845 96.674 49.4691C96.7362 50.0997 96.8288 50.9508 96.2451 51.3686C95.7421 51.7102 95.0108 51.7091 94.4204 51.7091L92.7011 51.6972V52.6127ZM97.4769 55.5798C97.8407 55.5798 97.9941 55.3398 97.9941 54.9999C97.9941 54.6518 97.8434 54.4367 97.4769 54.4367C97.2941 54.4367 97.1267 54.4296 96.9851 54.5712C96.8841 54.6594 96.8379 54.8065 96.8379 54.9999C96.8379 55.1931 96.8841 55.3402 96.9851 55.4285C97.1196 55.5887 97.2898 55.5798 97.4769 55.5798ZM95.5765 55.5798C95.9393 55.5798 96.0979 55.3405 96.0979 54.9999C96.0979 54.6505 95.9423 54.4367 95.5765 54.4367C95.3931 54.4367 95.2312 54.4289 95.0889 54.5712C94.9837 54.6594 94.8138 54.8065 94.8138 54.9999C94.8138 55.1931 94.9837 55.3402 95.0889 55.4285C95.224 55.5894 95.3888 55.5798 95.5765 55.5798ZM98.7348 56.1724H99.8027C103.017 56.1724 104.222 54.23 104.222 51.2174C104.222 49.8851 103.986 48.847 103.524 48.1073C103.053 47.3635 102.397 46.9937 101.569 46.9937C101.182 46.9937 100.824 47.0819 100.513 47.2457C99.4285 47.8373 98.9409 49.0524 98.9409 50.2423C98.9409 51.8004 99.8676 52.6421 101.405 52.6421C102.171 52.6421 102.987 52.3367 103.406 51.6628H103.482C103.482 52.655 103.322 53.6296 102.59 54.3611C101.582 55.3761 100.055 55.2646 98.7348 55.2646V56.1724ZM101.358 51.7386C100.248 51.7386 99.6976 51.2174 99.6976 50.1667C99.6976 49.3636 99.9857 48.4415 100.766 48.0737C101.253 47.8165 101.865 47.8441 102.338 48.1199C102.904 48.4374 103.178 49.0969 103.347 49.6918C103.462 50.1737 103.482 50.6255 103.482 51.1165C103.065 51.5283 102.443 51.7386 101.627 51.7386H101.358Z" fill="#419971"/>
<path d="M57.8392 50.8227C57.8392 50.4589 57.8061 50.1081 57.7766 49.7462C57.7474 49.5368 57.7181 49.3022 57.6889 49.0508L57.338 46.9524L56.5988 47.099L56.9663 49.1514C56.9955 49.4027 57.0289 49.6121 57.0581 49.8049C57.0707 49.9934 57.0874 50.1734 57.1 50.3367C57.1166 50.496 57.1166 50.6593 57.1166 50.8227C57.1166 52.8164 56.0098 53.8091 53.7834 53.8091H53.1653C52.2089 53.8091 51.4737 53.5578 50.9558 53.0384C50.4253 52.5232 50.1621 51.8112 50.1621 50.8812C50.1621 50.0219 50.4599 49.1037 50.8095 48.3262L50.1455 48.1043C49.9241 48.6069 49.7611 49.1095 49.6443 49.6121C49.2735 51.0414 49.3679 52.7198 50.513 53.7798C51.2064 54.4291 52.1921 54.7516 53.4744 54.7516C56.3774 54.7516 57.8392 53.4364 57.8392 50.8227ZM53.8294 46.701C54.1961 46.701 54.3432 46.4664 54.3432 46.123C54.3432 45.7736 54.1966 45.5617 53.8294 45.5617C53.6473 45.5617 53.4864 45.5539 53.345 45.6957C53.2405 45.7837 53.1945 45.9303 53.1945 46.123C53.1945 46.3157 53.2405 46.4623 53.345 46.5544C53.4807 46.7102 53.6442 46.701 53.8294 46.701ZM59.6521 52.3891H60.4332V43.3006H59.6521V52.3891ZM60.6796 55.9369C61.4476 55.9369 62.189 55.9473 62.9059 55.6102C64.8676 54.7572 64.9588 52.586 64.823 50.7346C64.7771 50.3493 64.7311 49.9639 64.6601 49.5827L64.4387 48.1168L63.6869 48.2676L63.996 50.0561C64.0419 50.3368 64.0837 50.63 64.1129 50.9399C64.1681 52.018 64.2083 53.2188 63.5114 54.1191C62.9555 54.8238 62.0046 55.0322 61.1515 55.0322H60.6796V55.9369ZM63.8623 46.3324C64.2225 46.3324 64.3802 46.0939 64.3802 45.7544C64.3802 45.4063 64.2255 45.1931 63.8623 45.1931C63.6801 45.1931 63.5192 45.1853 63.3777 45.3271C63.2734 45.4151 63.2316 45.5617 63.2316 45.7544C63.2316 45.9471 63.2734 46.0937 63.3777 46.1817C63.5121 46.3419 63.6757 46.3324 63.8623 46.3324ZM66.665 52.3891H67.446V42.931H66.665V52.3891ZM72.5127 52.3891C73.277 52.3891 73.8659 52.1966 74.2795 51.7985C74.693 51.4133 74.8977 50.8812 74.8977 50.2027C74.8977 49.0221 74.2734 48.1447 73.5443 47.2749L71.7023 45.1346L71.0257 45.7712L72.9094 47.9115C73.3647 48.3849 73.678 48.7996 73.866 49.1388C74.2045 49.7366 74.2961 50.5524 73.7949 51.0908C73.5569 51.3546 73.16 51.4886 72.6004 51.4886H69.8728V50.3201H69.1377V51.4594C69.1377 52.042 69.4681 52.3891 70.0524 52.3891H72.5127ZM74.5593 55.9369C75.294 55.9369 75.965 55.9447 76.6687 55.6689C78.1216 55.1076 78.6011 53.8214 78.732 52.3891H79.8055L80.0436 52.1546V51.4886H78.7445C78.732 51.1787 78.7028 50.8687 78.6693 50.5421C78.5657 49.7313 78.4405 48.9247 78.3186 48.1168L77.5666 48.2676L77.8757 50.0561C77.9217 50.3368 77.9634 50.63 77.9928 50.9399C78.0479 52.018 78.088 53.2188 77.3913 54.1191C76.8352 54.8238 75.8843 55.0322 75.0314 55.0322H74.5593V55.9369ZM79.8097 52.3891H80.3234C82.1362 52.3891 83.0509 51.5892 83.0509 49.9807C83.0509 49.7462 83.0341 49.4613 83.0049 49.1514C82.9315 48.3728 82.7968 47.592 82.6791 46.8183L81.944 46.9356C82.0701 47.7101 82.2043 48.4743 82.2824 49.2562C82.3441 49.8848 82.4362 50.7329 81.8563 51.1493C81.3566 51.4898 80.6301 51.4886 80.0436 51.4886L79.8097 51.7232V52.3891ZM83.0509 55.3589C83.4258 55.3589 83.5647 55.1383 83.5647 54.7851C83.5647 54.4373 83.4175 54.2197 83.0509 54.2197C82.8689 54.2197 82.7035 54.212 82.5623 54.3537C82.462 54.4416 82.416 54.5924 82.416 54.7851C82.416 54.9904 82.462 55.1368 82.5623 55.2249C82.6989 55.3686 82.871 55.3589 83.0509 55.3589ZM82.107 57.1181C82.253 57.1181 82.3701 57.072 82.4745 56.9841C82.6559 56.8022 82.6561 56.3412 82.4745 56.1589C82.3118 56.0154 82.1707 56.0249 81.9733 56.0249C81.8397 56.0249 81.7226 56.0668 81.6349 56.1589C81.5305 56.2469 81.4888 56.3809 81.4888 56.5694C81.4888 56.7621 81.5305 56.8961 81.6349 56.9841C81.7778 57.1273 81.9247 57.1181 82.107 57.1181ZM81.1629 55.3589C81.5374 55.3589 81.6809 55.1402 81.6809 54.7851C81.6809 54.435 81.5294 54.2197 81.1629 54.2197C80.9807 54.2197 80.8199 54.2119 80.6785 54.3537C80.574 54.4416 80.528 54.5924 80.528 54.7851C80.528 54.9904 80.574 55.1368 80.6785 55.2249C80.8152 55.3686 80.983 55.3589 81.1629 55.3589Z" fill="#419971"/>
</svg>
