<svg width="165" height="65" viewBox="0 0 165 65" fill="none" xmlns="http://www.w3.org/2000/svg">
<path fill-rule="evenodd" clip-rule="evenodd" d="M135.994 21.7551C137.183 21.7551 138.148 22.7263 138.148 23.9246C138.148 25.1227 137.183 26.094 135.994 26.094C134.804 26.094 133.84 25.1227 133.84 23.9246C133.84 22.7263 134.804 21.7551 135.994 21.7551Z" fill="#95DD91"/>
<path d="M135.994 21.7551C137.183 21.7551 138.148 22.7263 138.148 23.9246C138.148 25.1227 137.183 26.094 135.994 26.094C134.804 26.094 133.84 25.1227 133.84 23.9246C133.84 22.7263 134.804 21.7551 135.994 21.7551Z" stroke="#0F2B0D" stroke-width="0.422434" stroke-miterlimit="22.9256"/>
<path fill-rule="evenodd" clip-rule="evenodd" d="M148.768 22.5826C149.884 22.5826 150.788 23.4942 150.788 24.6183C150.788 25.7426 149.884 26.6541 148.768 26.6541C147.651 26.6541 146.747 25.7426 146.747 24.6183C146.747 23.4942 147.651 22.5826 148.768 22.5826Z" fill="#0F2B0D"/>
<path d="M148.768 22.5826C149.884 22.5826 150.788 23.4942 150.788 24.6183C150.788 25.7426 149.884 26.6541 148.768 26.6541C147.651 26.6541 146.747 25.7426 146.747 24.6183C146.747 23.4942 147.651 22.5826 148.768 22.5826Z" stroke="#0F2B0D" stroke-width="0.422434" stroke-miterlimit="22.9256"/>
<path fill-rule="evenodd" clip-rule="evenodd" d="M119.032 15.0806C120.201 15.0806 121.149 16.0355 121.149 17.2132C121.149 18.391 120.201 19.3458 119.032 19.3458C117.863 19.3458 116.915 18.391 116.915 17.2132C116.915 16.0355 117.863 15.0806 119.032 15.0806Z" fill="#95DD91"/>
<path d="M119.032 15.0806C120.201 15.0806 121.149 16.0355 121.149 17.2132C121.149 18.391 120.201 19.3458 119.032 19.3458C117.863 19.3458 116.915 18.391 116.915 17.2132C116.915 16.0355 117.863 15.0806 119.032 15.0806Z" stroke="#0F2B0D" stroke-width="0.422434" stroke-miterlimit="22.9256"/>
<path fill-rule="evenodd" clip-rule="evenodd" d="M127.703 16.6642C128.842 16.6642 129.766 17.5944 129.766 18.7419C129.766 19.8892 128.842 20.8196 127.703 20.8196C126.564 20.8196 125.64 19.8892 125.64 18.7419C125.64 17.5944 126.564 16.6642 127.703 16.6642Z" fill="#0F2B0D"/>
<path d="M127.703 16.6642C128.842 16.6642 129.766 17.5944 129.766 18.7419C129.766 19.8892 128.842 20.8196 127.703 20.8196C126.564 20.8196 125.64 19.8892 125.64 18.7419C125.64 17.5944 126.564 16.6642 127.703 16.6642Z" stroke="#0F2B0D" stroke-width="0.422434" stroke-miterlimit="22.9256"/>
<path fill-rule="evenodd" clip-rule="evenodd" d="M129.631 7.92871C130.935 7.92871 131.992 8.99376 131.992 10.3077C131.992 11.6214 130.935 12.6865 129.631 12.6865C128.327 12.6865 127.269 11.6214 127.269 10.3077C127.269 8.99376 128.327 7.92871 129.631 7.92871Z" fill="#0F2B0D"/>
<path d="M129.631 7.92871C130.935 7.92871 131.992 8.99376 131.992 10.3077C131.992 11.6214 130.935 12.6865 129.631 12.6865C128.327 12.6865 127.269 11.6214 127.269 10.3077C127.269 8.99376 128.327 7.92871 129.631 7.92871Z" stroke="#0F2B0D" stroke-width="0.422434" stroke-miterlimit="22.9256"/>
<path fill-rule="evenodd" clip-rule="evenodd" d="M145.965 7.51133C147.27 7.51133 148.327 8.5764 148.327 9.89028C148.327 11.204 147.27 12.269 145.965 12.269C144.661 12.269 143.604 11.204 143.604 9.89028C143.604 8.5764 144.661 7.51133 145.965 7.51133Z" fill="#95DD91"/>
<path d="M145.965 7.51133C147.27 7.51133 148.327 8.5764 148.327 9.89028C148.327 11.204 147.27 12.269 145.965 12.269C144.661 12.269 143.604 11.204 143.604 9.89028C143.604 8.5764 144.661 7.51133 145.965 7.51133Z" stroke="#0F2B0D" stroke-width="0.422434" stroke-miterlimit="22.9256"/>
<path fill-rule="evenodd" clip-rule="evenodd" d="M143.14 18.1549C144.109 18.1549 144.894 18.9456 144.894 19.9209C144.894 20.8965 144.109 21.6873 143.14 21.6873C142.172 21.6873 141.387 20.8965 141.387 19.9209C141.387 18.9456 142.172 18.1549 143.14 18.1549Z" fill="#0F2B0D"/>
<path d="M143.14 18.1549C144.109 18.1549 144.894 18.9456 144.894 19.9209C144.894 20.8965 144.109 21.6873 143.14 21.6873C142.172 21.6873 141.387 20.8965 141.387 19.9209C141.387 18.9456 142.172 18.1549 143.14 18.1549Z" stroke="#0F2B0D" stroke-width="0.422434" stroke-miterlimit="22.9256"/>
<path fill-rule="evenodd" clip-rule="evenodd" d="M142.676 29.0515C143.735 29.0515 144.593 29.9162 144.593 30.9829C144.593 32.0495 143.735 32.9143 142.676 32.9143C141.617 32.9143 140.759 32.0495 140.759 30.9829C140.759 29.9162 141.617 29.0515 142.676 29.0515Z" fill="#0F2B0D"/>
<path d="M142.676 29.0515C143.735 29.0515 144.593 29.9162 144.593 30.9829C144.593 32.0495 143.735 32.9143 142.676 32.9143C141.617 32.9143 140.759 32.0495 140.759 30.9829C140.759 29.9162 141.617 29.0515 142.676 29.0515Z" stroke="#0F2B0D" stroke-width="0.422434" stroke-miterlimit="22.9256"/>
<path fill-rule="evenodd" clip-rule="evenodd" d="M121.473 28.3674C122.778 28.3674 123.835 29.4324 123.835 30.746C123.835 32.0598 122.778 33.1249 121.473 33.1249C120.169 33.1249 119.112 32.0598 119.112 30.746C119.112 29.4324 120.169 28.3674 121.473 28.3674Z" fill="#95DD91"/>
<path d="M121.473 28.3674C122.778 28.3674 123.835 29.4324 123.835 30.746C123.835 32.0598 122.778 33.1249 121.473 33.1249C120.169 33.1249 119.112 32.0598 119.112 30.746C119.112 29.4324 120.169 28.3674 121.473 28.3674Z" stroke="#0F2B0D" stroke-width="0.422434" stroke-miterlimit="22.9256"/>
<path fill-rule="evenodd" clip-rule="evenodd" d="M136.259 12.9908C137.288 12.9908 138.122 13.8308 138.122 14.8672C138.122 15.9037 137.288 16.7439 136.259 16.7439C135.23 16.7439 134.396 15.9037 134.396 14.8672C134.396 13.8308 135.23 12.9908 136.259 12.9908Z" fill="#0F2B0D"/>
<path d="M136.259 12.9908C137.288 12.9908 138.122 13.8308 138.122 14.8672C138.122 15.9037 137.288 16.7439 136.259 16.7439C135.23 16.7439 134.396 15.9037 134.396 14.8672C134.396 13.8308 135.23 12.9908 136.259 12.9908Z" stroke="#0F2B0D" stroke-width="0.422434" stroke-miterlimit="22.9256"/>
<path fill-rule="evenodd" clip-rule="evenodd" d="M154.369 11.1854C155.398 11.1854 156.232 12.0255 156.232 13.0618C156.232 14.0983 155.398 14.9386 154.369 14.9386C153.341 14.9386 152.506 14.0983 152.506 13.0618C152.506 12.0255 153.341 11.1854 154.369 11.1854Z" fill="#0F2B0D"/>
<path d="M154.369 11.1854C155.398 11.1854 156.232 12.0255 156.232 13.0618C156.232 14.0983 155.398 14.9386 154.369 14.9386C153.341 14.9386 152.506 14.0983 152.506 13.0618C152.506 12.0255 153.341 11.1854 154.369 11.1854Z" stroke="#0F2B0D" stroke-width="0.422434" stroke-miterlimit="22.9256"/>
<path fill-rule="evenodd" clip-rule="evenodd" d="M136.197 4.43802C137.226 4.43802 138.06 5.2783 138.06 6.3146C138.06 7.35107 137.226 8.19116 136.197 8.19116C135.168 8.19116 134.334 7.35107 134.334 6.3146C134.334 5.2783 135.168 4.43802 136.197 4.43802Z" fill="#0F2B0D"/>
<path d="M136.197 4.43802C137.226 4.43802 138.06 5.27829 138.06 6.3146C138.06 7.35107 137.226 8.19116 136.197 8.19116C135.168 8.19116 134.334 7.35107 134.334 6.3146C134.334 5.27829 135.168 4.43802 136.197 4.43802Z" stroke="#0F2B0D" stroke-width="0.422434" stroke-miterlimit="22.9256"/>
<path fill-rule="evenodd" clip-rule="evenodd" d="M128.475 25.3728C129.504 25.3728 130.338 26.2131 130.338 27.2495C130.338 28.2859 129.504 29.126 128.475 29.126C127.446 29.126 126.612 28.2859 126.612 27.2495C126.612 26.2131 127.446 25.3728 128.475 25.3728Z" fill="#0F2B0D"/>
<path d="M128.475 25.3728C129.504 25.3728 130.338 26.2131 130.338 27.2495C130.338 28.2859 129.504 29.126 128.475 29.126C127.446 29.126 126.612 28.2859 126.612 27.2495C126.612 26.2131 127.446 25.3728 128.475 25.3728Z" stroke="#0F2B0D" stroke-width="0.422434" stroke-miterlimit="22.9256"/>
<path fill-rule="evenodd" clip-rule="evenodd" d="M122.873 23.2914C123.902 23.2914 124.736 24.1315 124.736 25.1678C124.736 26.2043 123.902 27.0446 122.873 27.0446C121.844 27.0446 121.01 26.2043 121.01 25.1678C121.01 24.1315 121.844 23.2914 122.873 23.2914Z" fill="#0F2B0D"/>
<path d="M122.873 23.2914C123.902 23.2914 124.736 24.1315 124.736 25.1678C124.736 26.2043 123.902 27.0446 122.873 27.0446C121.844 27.0446 121.01 26.2043 121.01 25.1678C121.01 24.1315 121.844 23.2914 122.873 23.2914Z" stroke="#0F2B0D" stroke-width="0.422434" stroke-miterlimit="22.9256"/>
<path fill-rule="evenodd" clip-rule="evenodd" d="M116.461 23.6418C117.199 23.6418 117.797 24.2444 117.797 24.9879C117.797 25.7311 117.199 26.3337 116.461 26.3337C115.723 26.3337 115.125 25.7311 115.125 24.9879C115.125 24.2444 115.723 23.6418 116.461 23.6418Z" fill="#0F2B0D"/>
<path d="M116.461 23.6418C117.199 23.6418 117.797 24.2444 117.797 24.9879C117.797 25.7311 117.199 26.3337 116.461 26.3337C115.723 26.3337 115.125 25.7311 115.125 24.9879C115.125 24.2444 115.723 23.6418 116.461 23.6418Z" stroke="#0F2B0D" stroke-width="0.422434" stroke-miterlimit="22.9256"/>
<path fill-rule="evenodd" clip-rule="evenodd" d="M137.818 27.3347C138.556 27.3347 139.154 27.9373 139.154 28.6806C139.154 29.4242 138.556 30.0267 137.818 30.0267C137.08 30.0267 136.482 29.4242 136.482 28.6806C136.482 27.9373 137.08 27.3347 137.818 27.3347Z" fill="#0F2B0D"/>
<path d="M137.818 27.3347C138.556 27.3347 139.154 27.9373 139.154 28.6806C139.154 29.4242 138.556 30.0267 137.818 30.0267C137.08 30.0267 136.482 29.4242 136.482 28.6806C136.482 27.9373 137.08 27.3347 137.818 27.3347Z" stroke="#0F2B0D" stroke-width="0.422434" stroke-miterlimit="22.9256"/>
<path fill-rule="evenodd" clip-rule="evenodd" d="M159.125 18.8777C159.864 18.8777 160.462 19.4804 160.462 20.2237C160.462 20.9672 159.864 21.5697 159.125 21.5697C158.388 21.5697 157.789 20.9672 157.789 20.2237C157.789 19.4804 158.388 18.8777 159.125 18.8777Z" fill="#0F2B0D"/>
<path d="M159.125 18.8777C159.864 18.8777 160.462 19.4804 160.462 20.2237C160.462 20.9672 159.864 21.5697 159.125 21.5697C158.388 21.5697 157.789 20.9672 157.789 20.2237C157.789 19.4804 158.388 18.8777 159.125 18.8777Z" stroke="#0F2B0D" stroke-width="0.422434" stroke-miterlimit="22.9256"/>
<path fill-rule="evenodd" clip-rule="evenodd" d="M158.225 26.9123C159.254 26.9123 160.088 27.7526 160.088 28.7888C160.088 29.8252 159.254 30.6655 158.225 30.6655C157.196 30.6655 156.362 29.8252 156.362 28.7888C156.362 27.7526 157.196 26.9123 158.225 26.9123Z" fill="#95DD91"/>
<path d="M158.225 26.9123C159.254 26.9123 160.088 27.7526 160.088 28.7888C160.088 29.8252 159.254 30.6655 158.225 30.6655C157.196 30.6655 156.362 29.8252 156.362 28.7888C156.362 27.7526 157.196 26.9123 158.225 26.9123Z" stroke="#0F2B0D" stroke-width="0.422434" stroke-miterlimit="22.9256"/>
<path fill-rule="evenodd" clip-rule="evenodd" d="M121.977 8.97124C122.714 8.97124 123.313 9.57375 123.313 10.3172C123.313 11.0607 122.714 11.6632 121.977 11.6632C121.239 11.6632 120.64 11.0607 120.64 10.3172C120.64 9.57375 121.239 8.97124 121.977 8.97124Z" fill="#0F2B0D"/>
<path d="M121.977 8.97124C122.714 8.97124 123.313 9.57375 123.313 10.3172C123.313 11.0607 122.714 11.6632 121.977 11.6632C121.239 11.6632 120.64 11.0607 120.64 10.3172C120.64 9.57375 121.239 8.97124 121.977 8.97124Z" stroke="#0F2B0D" stroke-width="0.422434" stroke-miterlimit="22.9256"/>
<path fill-rule="evenodd" clip-rule="evenodd" d="M140.166 35.3949C140.647 35.3949 141.038 35.7883 141.038 36.2735C141.038 36.7587 140.647 37.152 140.166 37.152C139.684 37.152 139.294 36.7587 139.294 36.2735C139.294 35.7883 139.684 35.3949 140.166 35.3949Z" fill="#0F2B0D"/>
<path d="M140.166 35.3949C140.647 35.3949 141.038 35.7883 141.038 36.2735C141.038 36.7587 140.647 37.152 140.166 37.152C139.684 37.152 139.294 36.7587 139.294 36.2735C139.294 35.7883 139.684 35.3949 140.166 35.3949Z" stroke="#0F2B0D" stroke-width="0.422434" stroke-miterlimit="22.9256"/>
<path fill-rule="evenodd" clip-rule="evenodd" d="M152.704 32.6733C153.185 32.6733 153.576 33.0667 153.576 33.5518C153.576 34.037 153.185 34.4304 152.704 34.4304C152.222 34.4304 151.831 34.037 151.831 33.5518C151.831 33.0667 152.222 32.6733 152.704 32.6733Z" fill="#0F2B0D"/>
<path d="M152.704 32.6733C153.185 32.6733 153.576 33.0667 153.576 33.5518C153.576 34.037 153.185 34.4304 152.704 34.4304C152.222 34.4304 151.831 34.037 151.831 33.5518C151.831 33.0667 152.222 32.6733 152.704 32.6733Z" stroke="#0F2B0D" stroke-width="0.422434" stroke-miterlimit="22.9256"/>
<path d="M116.772 23.6786L118.383 19.296" stroke="#0F2B0D" stroke-width="0.422434" stroke-miterlimit="22.9256"/>
<path d="M119.816 19.1747L122.022 23.4977" stroke="#0F2B0D" stroke-width="0.422434" stroke-miterlimit="22.9256"/>
<path d="M121.08 17.7555L125.751 18.4374" stroke="#0F2B0D" stroke-width="0.422434" stroke-miterlimit="22.9256"/>
<path d="M119.899 15.1799L121.456 11.5573" stroke="#0F2B0D" stroke-width="0.422434" stroke-miterlimit="22.9256"/>
<path d="M122.749 11.4158L126.581 17.0847" stroke="#0F2B0D" stroke-width="0.422434" stroke-miterlimit="22.9256"/>
<path d="M129.029 12.6084L128.241 16.7355" stroke="#0F2B0D" stroke-width="0.422434" stroke-miterlimit="22.9256"/>
<path d="M123.313 10.3173L127.269 10.3078" stroke="#0F2B0D" stroke-width="0.422434" stroke-miterlimit="22.9256"/>
<path d="M131.599 8.99304L134.644 7.35172" stroke="#0F2B0D" stroke-width="0.422434" stroke-miterlimit="22.9256"/>
<path d="M137.843 7.19373L143.765 9.02466" stroke="#0F2B0D" stroke-width="0.422434" stroke-miterlimit="22.9256"/>
<path d="M148.133 10.8362L152.614 12.432" stroke="#0F2B0D" stroke-width="0.422434" stroke-miterlimit="22.9256"/>
<path d="M155.238 14.7221L158.534 19.0165" stroke="#0F2B0D" stroke-width="0.422434" stroke-miterlimit="22.9256"/>
<path d="M158.976 21.5614L158.556 26.9417" stroke="#0F2B0D" stroke-width="0.422434" stroke-miterlimit="22.9256"/>
<path d="M145.226 12.1502L142.981 18.3314" stroke="#0F2B0D" stroke-width="0.422434" stroke-miterlimit="22.9256"/>
<path d="M144.585 19.2211L152.776 14.0356" stroke="#0F2B0D" stroke-width="0.422434" stroke-miterlimit="22.9256"/>
<path d="M153.511 14.8341L149.161 22.7081" stroke="#0F2B0D" stroke-width="0.422434" stroke-miterlimit="22.9256"/>
<path d="M150.51 23.7257L157.871 20.6881" stroke="#0F2B0D" stroke-width="0.422434" stroke-miterlimit="22.9256"/>
<path d="M136.197 8.19106L136.242 12.9908" stroke="#0F2B0D" stroke-width="0.422434" stroke-miterlimit="22.9256"/>
<path d="M137.671 13.6431L143.956 11.1415" stroke="#0F2B0D" stroke-width="0.422434" stroke-miterlimit="22.9256"/>
<path d="M134.319 22.561L129.347 19.9966" stroke="#0F2B0D" stroke-width="0.422434" stroke-miterlimit="22.9256"/>
<path d="M136.098 16.7369L135.994 21.755" stroke="#0F2B0D" stroke-width="0.422434" stroke-miterlimit="22.9256"/>
<path d="M129.531 17.7795L134.509 15.5126" stroke="#0F2B0D" stroke-width="0.422434" stroke-miterlimit="22.9256"/>
<path d="M141.492 20.9195L137.94 22.7482" stroke="#0F2B0D" stroke-width="0.422434" stroke-miterlimit="22.9256"/>
<path d="M150.285 25.9625L156.442 28.2428" stroke="#0F2B0D" stroke-width="0.422434" stroke-miterlimit="22.9256"/>
<path d="M126.568 20.609L124.107 23.7621" stroke="#0F2B0D" stroke-width="0.422434" stroke-miterlimit="22.9256"/>
<path d="M117.225 26.0924L119.967 28.7715" stroke="#0F2B0D" stroke-width="0.422434" stroke-miterlimit="22.9256"/>
<path d="M142.396 21.6553L138.321 27.7714" stroke="#0F2B0D" stroke-width="0.422434" stroke-miterlimit="22.9256"/>
<path d="M139.078 28.2325L146.811 25.557" stroke="#0F2B0D" stroke-width="0.422434" stroke-miterlimit="22.9256"/>
<path d="M136.605 26.0916L137.209 27.4823" stroke="#0F2B0D" stroke-width="0.422434" stroke-miterlimit="22.9256"/>
<path d="M144.074 29.5092L147.699 26.3463" stroke="#0F2B0D" stroke-width="0.422434" stroke-miterlimit="22.9256"/>
<path d="M144.52 31.55L151.877 33.2699" stroke="#0F2B0D" stroke-width="0.422434" stroke-miterlimit="22.9256"/>
<path d="M142.071 32.6663L140.689 35.5704" stroke="#0F2B0D" stroke-width="0.422434" stroke-miterlimit="22.9256"/>
<path d="M156.939 30.3372L153.338 32.9486" stroke="#0F2B0D" stroke-width="0.422434" stroke-miterlimit="22.9256"/>
<path d="M151.952 33.9991L141.004 36.5171" stroke="#0F2B0D" stroke-width="0.422434" stroke-miterlimit="22.9256"/>
<path d="M124.572 25.9372L126.651 26.8646" stroke="#0F2B0D" stroke-width="0.422434" stroke-miterlimit="22.9256"/>
<path d="M134.116 24.9881L130.234 26.5089" stroke="#0F2B0D" stroke-width="0.422434" stroke-miterlimit="22.9256"/>
<path fill-rule="evenodd" clip-rule="evenodd" d="M137.271 1.00003C152.309 1.00003 164.5 13.2805 164.5 28.4286C164.5 43.5768 152.309 55.8572 137.271 55.8572C122.233 55.8572 110.042 43.5768 110.042 28.4286C110.042 13.2805 122.233 1.00003 137.271 1.00003ZM132.612 33.7918C133.131 31.235 133.769 28.4967 134.845 26.2004C132.728 27.356 131.629 32.3133 131.284 34.3697C130.799 32.8981 130.021 29.8234 128.598 29.1619C129.401 32.1761 130.043 33.1235 130.07 36.5175C129.959 36.2533 129.474 35.6226 128.774 34.8885C127.467 33.519 125.589 32.26 123.83 31.8825C123.453 32.2236 130.185 34.8254 130.401 44.5573C130.521 49.9279 128.009 54.1558 122.509 50.1131C115.768 45.1587 111.107 37.4637 111.107 28.4397C111.107 13.8839 122.821 2.08367 137.271 2.08367C151.721 2.08367 163.435 13.8839 163.435 28.4397C163.435 38.8373 157.457 47.8291 148.775 52.1178C148.043 52.4793 147.291 52.8062 146.524 53.1001C137.234 56.6574 133.497 51.6836 133.955 45.0034C134.448 37.8142 136.064 36.2657 140.725 31.8586C136.559 32.8435 134.557 36.1298 133.672 36.7037C134.014 35.0044 134.573 33.7563 135.812 31.8619C136.66 30.5641 136.859 30.4213 137.028 30.0247C135.067 30.6239 133.681 32.412 132.892 34.0914C132.416 35.1063 132.525 34.2252 132.612 33.7918Z" fill="#0F2B0D"/>
<path d="M137.271 1.00003C152.309 1.00003 164.5 13.2805 164.5 28.4286C164.5 43.5768 152.309 55.8572 137.271 55.8572C122.233 55.8572 110.042 43.5768 110.042 28.4286C110.042 13.2805 122.233 1.00003 137.271 1.00003ZM132.612 33.7918C133.131 31.235 133.769 28.4967 134.845 26.2004C132.728 27.356 131.629 32.3133 131.284 34.3697C130.799 32.8981 130.021 29.8234 128.598 29.1619C129.401 32.1761 130.043 33.1235 130.07 36.5175C129.959 36.2533 129.474 35.6226 128.774 34.8885C127.467 33.519 125.589 32.26 123.83 31.8825C123.453 32.2236 130.185 34.8254 130.401 44.5573C130.521 49.9279 128.009 54.1558 122.509 50.1131C115.768 45.1587 111.107 37.4637 111.107 28.4397C111.107 13.8839 122.821 2.08367 137.271 2.08367C151.721 2.08367 163.435 13.8839 163.435 28.4397C163.435 38.8373 157.457 47.8291 148.775 52.1178C148.043 52.4793 147.291 52.8062 146.524 53.1001C137.234 56.6574 133.497 51.6836 133.955 45.0034C134.448 37.8142 136.064 36.2657 140.725 31.8586C136.559 32.8435 134.557 36.1298 133.672 36.7037C134.014 35.0044 134.573 33.7563 135.812 31.8619C136.66 30.5641 136.859 30.4213 137.028 30.0247C135.067 30.6239 133.681 32.412 132.892 34.0914C132.416 35.1063 132.525 34.2252 132.612 33.7918Z" stroke="#0F2B0D" stroke-width="0.422434" stroke-miterlimit="22.9256"/>
<path fill-rule="evenodd" clip-rule="evenodd" d="M44.706 22.0974C43.409 22.802 41.7001 24.3618 41.6819 27.6859C41.6524 33.0536 41.694 37.4564 41.694 37.4564C45.7226 37.4472 49.7259 37.4556 53.7715 37.4404C53.7715 37.4404 53.8133 33.0375 53.7836 27.67C53.7654 24.3457 52.0568 22.7861 50.7596 22.0816C49.3209 21.3 46.1978 21.2874 44.706 22.0974ZM47.7576 22.7677C50.9246 23.8134 50.8685 26.5629 50.8686 26.5702L50.9481 36.5216L50.3306 36.5251L50.3308 36.518L44.5174 36.5377L44.5969 26.5863C44.597 26.5785 44.5404 23.8009 47.7576 22.7677Z" fill="#0F2B0D"/>
<path fill-rule="evenodd" clip-rule="evenodd" d="M104.23 33.885C104.552 33.2168 104.732 32.5046 104.721 31.7933L104.711 31.2011V21.5803L102.073 21.6018L102.037 31.9977C102.022 37.8456 95.5372 37.8539 95.5222 32.0011L95.4861 21.6051L92.8477 21.5836V31.2044L92.8381 31.7966C92.8252 32.5921 93.0522 33.3886 93.4485 34.1238C95.909 38.6867 101.951 38.6206 104.23 33.885Z" fill="#0F2B0D"/>
<path fill-rule="evenodd" clip-rule="evenodd" d="M94.9669 33.9063C95.2884 33.2379 95.4684 32.5259 95.4571 31.8145L95.4476 31.2223V21.6015L92.8091 21.6231L92.7731 32.0188C92.7581 37.8668 86.2735 37.8749 86.2586 32.0223L86.2225 21.6264L83.5839 21.6048V31.2256L83.5746 31.8179C83.5616 32.6134 83.7885 33.4097 84.185 34.145C86.6453 38.708 92.688 38.6419 94.9669 33.9063Z" fill="#0F2B0D"/>
<path fill-rule="evenodd" clip-rule="evenodd" d="M77.9588 33.8396C76.8819 29.0529 75.5896 23.2165 75.3106 21.997L75.222 21.6504H68.2916V22.7265H72.8113L72.8438 22.8496L75.1922 33.5513C76.0045 37.252 78.6891 37.7083 81.604 37.2621C83.3151 37.0003 84.8573 35.7293 85.7899 33.7912C86.1115 33.1229 86.2916 32.4108 86.2803 31.6994L86.2708 31.1072L86.2025 25.8756L83.564 25.8972L83.5963 31.9039C83.5854 36.0971 79.0077 38.5019 77.9588 33.8396Z" fill="#0F2B0D"/>
<path fill-rule="evenodd" clip-rule="evenodd" d="M75.2648 35.6366H66.3979V36.7129H75.2648V35.6366Z" fill="#0F2B0D"/>
<path fill-rule="evenodd" clip-rule="evenodd" d="M55.6165 41.2246L55.4991 42.3487C57.8743 42.6618 60.38 41.4782 61.6733 38.7906C61.9951 38.1222 62.175 37.4102 62.1638 36.6989L62.1543 36.1067V21.6031L59.5158 21.6246L59.4795 36.9033C59.4713 40.1925 57.4159 41.6342 55.6165 41.2246Z" fill="#0F2B0D"/>
<path fill-rule="evenodd" clip-rule="evenodd" d="M101.847 39.1657L97.7337 40.8613L97.937 41.3606L102.05 39.6648L101.847 39.1657Z" fill="#0F2B0D"/>
<path d="M18.7606 53.1319C19.7529 52.7469 20.2169 51.8675 20.2169 50.8087C20.2169 49.5217 19.4455 48.4542 18.5979 47.5784L18.1682 47.1249H17.2711C16.69 47.8193 16.0773 48.4946 15.6397 49.2983C15.3602 49.829 15.2099 50.3722 15.2099 50.9585C15.2099 51.6559 15.4312 52.2291 15.8734 52.6655C16.299 53.102 16.9207 53.3287 17.7009 53.3287C18.0972 53.3287 18.4478 53.2688 18.7606 53.1319ZM17.5506 52.4089C17.1309 52.4089 16.6921 52.2665 16.4032 51.9424C15.7972 51.3743 15.8611 50.426 16.228 49.7391C16.4032 49.3753 16.6995 48.9689 17.1084 48.4982L17.5965 47.9249H17.6675L18.2433 48.5453C18.6689 48.9817 18.9776 49.3925 19.1862 49.7391C19.3782 50.0984 19.4783 50.4621 19.4783 50.8087C19.4783 51.2921 19.3322 51.6858 19.0235 51.9724C18.7148 52.2591 18.3309 52.4089 17.8468 52.4089H17.5506ZM19.979 56.8029C20.7461 56.8029 21.487 56.8135 22.2029 56.4692C24.1625 55.5979 24.2538 53.38 24.118 51.4889C24.0721 51.0954 24.0261 50.7017 23.9553 50.3123L23.7342 48.8149L22.9831 48.9689L23.2918 50.7958C23.3378 51.0825 23.3794 51.382 23.4087 51.6986C23.4638 52.7998 23.504 54.0264 22.8079 54.946C22.2524 55.6659 21.3026 55.8788 20.4505 55.8788H19.979V56.8029ZM28.6201 53.179C29.5791 53.179 30.2845 52.8901 30.3892 51.8184H30.46C30.8637 52.7555 31.3145 53.179 32.346 53.179L32.5796 52.9393V52.2591C32.3229 52.2591 32.0569 52.2772 31.816 52.1693C31.4604 52.0097 31.2216 51.5763 31.065 51.2323C30.9482 50.9755 30.8146 50.6589 30.6811 50.2526L29.1208 45.7685L28.3571 46.0552L29.8592 50.3252C29.9593 50.6418 30.0345 50.8857 30.0803 51.0354C30.1868 51.4171 30.1867 51.862 29.8009 52.0752C29.5796 52.1992 29.1791 52.2591 28.6201 52.2591H25.9997V51.0654H25.2654V52.2291C25.2654 52.8244 25.5955 53.179 26.1792 53.179H28.6201ZM32.346 53.179C32.935 53.2086 36.7026 53.1479 37.028 52.9993C37.3783 52.8753 37.6872 52.6527 37.9666 52.3318L38.4673 52.6527C39.1893 53.1191 39.8694 53.3586 40.5285 53.3586C41.5127 53.3586 42.0636 52.8572 42.2684 51.8826H42.3394C42.5669 52.9275 43.2568 53.3586 44.267 53.3586C45.6079 53.3586 46.1946 52.4109 46.1946 51.1253C46.1946 50.9284 46.1821 50.6888 46.1655 50.4021C46.1529 50.1156 46.1237 49.829 46.0778 49.5251L45.9777 48.7422L45.2392 48.832C45.3178 49.3782 45.412 49.9289 45.4477 50.4793C45.4734 50.994 45.561 51.7164 45.1975 52.1222C45.0055 52.3318 44.726 52.4388 44.388 52.4388C43.9385 52.4388 43.5239 52.4444 43.2364 52.0152C43.0487 51.7457 42.9443 51.3093 42.9443 50.7189V49.4224H42.2059V50.7189C42.2059 51.352 42.089 51.7885 41.8387 52.0451C41.3438 52.5526 40.3753 52.4931 39.7483 52.3019C39.25 52.1567 38.8714 51.8946 38.4382 51.6258C38.4904 51.5417 38.5551 51.446 38.5884 51.352L39.3978 49.7391L38.7928 49.4224L38.0126 50.9884C37.8958 51.2323 37.7789 51.429 37.6747 51.5959C37.355 52.0409 36.7086 52.1913 36.0918 52.2359C35.757 52.26 32.846 52.2591 32.5796 52.2591L32.346 52.4987V53.179Z" fill="#0F2B0D"/>
<path d="M86.8816 52.6128H87.6679V43.2464H86.8816V52.6128ZM87.9159 56.1725C88.6555 56.1725 89.3308 56.1803 90.039 55.9035C91.5017 55.3403 91.9842 54.0499 92.116 52.6128H93.1966L93.4363 52.3775V51.7092H92.1286C92.116 51.3982 92.0866 51.0872 92.053 50.7594C91.9487 49.9461 91.8227 49.1366 91.6998 48.326L90.9431 48.4772L91.2541 50.2718C91.3004 50.5534 91.3424 50.8476 91.372 51.1585C91.4274 52.2403 91.4679 53.4451 90.7665 54.3485C90.2068 55.0557 89.2497 55.2647 88.3909 55.2647H87.9159V56.1725ZM93.2009 52.6128H95.2018C97.0266 52.6128 97.9474 51.81 97.9474 50.1961C97.9474 49.9608 97.9304 49.6751 97.9011 49.364C97.8272 48.5827 97.6916 47.7994 97.5731 47.0231L96.8332 47.1408C96.96 47.918 97.0952 48.6846 97.1738 49.4691C97.2359 50.0998 97.3286 50.9509 96.7449 51.3686C96.2419 51.7103 95.5106 51.7092 94.9202 51.7092L93.2009 51.6972V52.6128ZM97.9767 55.5799C98.3405 55.5799 98.4939 55.3399 98.4939 55C98.4939 54.6518 98.3432 54.4367 97.9767 54.4367C97.7939 54.4367 97.6265 54.4297 97.4849 54.5713C97.3839 54.6595 97.3377 54.8066 97.3377 55C97.3377 55.1932 97.3839 55.3403 97.4849 55.4285C97.6194 55.5887 97.7896 55.5799 97.9767 55.5799ZM96.0763 55.5799C96.439 55.5799 96.5977 55.3406 96.5977 55C96.5977 54.6505 96.442 54.4367 96.0763 54.4367C95.8929 54.4367 95.731 54.4289 95.5887 54.5713C95.4835 54.6595 95.3136 54.8066 95.3136 55C95.3136 55.1932 95.4835 55.3403 95.5887 55.4285C95.7238 55.5894 95.8886 55.5799 96.0763 55.5799ZM99.2346 56.1725H100.303C103.516 56.1725 104.721 54.23 104.721 51.2174C104.721 49.8852 104.486 48.847 104.023 48.1074C103.552 47.3636 102.897 46.9937 102.068 46.9937C101.682 46.9937 101.324 47.0819 101.013 47.2458C99.9283 47.8373 99.4406 49.0524 99.4406 50.2424C99.4406 51.8005 100.367 52.6422 101.904 52.6422C102.671 52.6422 103.487 52.3367 103.906 51.6629H103.981C103.981 52.6551 103.822 53.6297 103.09 54.3611C102.082 55.3762 100.555 55.2647 99.2346 55.2647V56.1725ZM101.858 51.7386C100.748 51.7386 100.197 51.2174 100.197 50.1668C100.197 49.3637 100.485 48.4416 101.265 48.0737C101.753 47.8165 102.365 47.8442 102.838 48.12C103.403 48.4375 103.678 49.097 103.847 49.6918C103.962 50.1737 103.981 50.6256 103.981 51.1165C103.565 51.5284 102.943 51.7386 102.127 51.7386H101.858Z" fill="#0F2B0D"/>
<path d="M58.3393 50.8228C58.3393 50.459 58.3062 50.1082 58.2767 49.7463C58.2475 49.5369 58.2182 49.3023 58.189 49.0509L57.8381 46.9524L57.0989 47.0991L57.4664 49.1514C57.4956 49.4028 57.529 49.6122 57.5582 49.8049C57.5708 49.9934 57.5875 50.1735 57.6001 50.3368C57.6167 50.496 57.6167 50.6593 57.6167 50.8228C57.6167 52.8165 56.51 53.8091 54.2836 53.8091H53.6655C52.709 53.8091 51.9739 53.5579 51.4559 53.0384C50.9255 52.5232 50.6622 51.8112 50.6622 50.8813C50.6622 50.0219 50.96 49.1038 51.3096 48.3263L50.6456 48.1043C50.4243 48.6069 50.2613 49.1096 50.1444 49.6122C49.7736 51.0415 49.868 52.7199 51.0132 53.7799C51.7066 54.4291 52.6922 54.7516 53.9745 54.7516C56.8775 54.7516 58.3393 53.4364 58.3393 50.8228ZM54.3295 46.701C54.6962 46.701 54.8433 46.4665 54.8433 46.1231C54.8433 45.7737 54.6967 45.5617 54.3295 45.5617C54.1474 45.5617 53.9865 45.554 53.8451 45.6958C53.7406 45.7837 53.6947 45.9303 53.6947 46.1231C53.6947 46.3158 53.7406 46.4624 53.8451 46.5545C53.9808 46.7102 54.1443 46.701 54.3295 46.701ZM60.1522 52.3892H60.9333V43.3007H60.1522V52.3892ZM61.1797 55.937C61.9477 55.937 62.6892 55.9473 63.406 55.6103C65.3677 54.7573 65.459 52.586 65.3232 50.7347C65.2772 50.3494 65.2313 49.964 65.1602 49.5828L64.9388 48.1169L64.187 48.2676L64.4961 50.0562C64.5421 50.3368 64.5838 50.6301 64.613 50.94C64.6683 52.0181 64.7084 53.2188 64.0115 54.1192C63.4556 54.8239 62.5047 55.0323 61.6516 55.0323H61.1797V55.937ZM64.3625 46.3324C64.7227 46.3324 64.8803 46.0939 64.8803 45.7545C64.8803 45.4064 64.7256 45.1932 64.3625 45.1932C64.1803 45.1932 64.0193 45.1854 63.8779 45.3272C63.7735 45.4151 63.7317 45.5617 63.7317 45.7545C63.7317 45.9472 63.7735 46.0938 63.8779 46.1817C64.0123 46.3419 64.1758 46.3324 64.3625 46.3324ZM67.1651 52.3892H67.9462V42.9311H67.1651V52.3892ZM73.0128 52.3892C73.7771 52.3892 74.3661 52.1966 74.7796 51.7986C75.1931 51.4133 75.3978 50.8813 75.3978 50.2028C75.3978 49.0222 74.7735 48.1448 74.0445 47.2749L72.2024 45.1346L71.5258 45.7713L73.4095 47.9116C73.8648 48.385 74.1781 48.7997 74.3661 49.1388C74.7046 49.7366 74.7962 50.5524 74.295 51.0908C74.057 51.3547 73.6601 51.4887 73.1005 51.4887H70.3729V50.3201H69.6378V51.4594C69.6378 52.0421 69.9682 52.3892 70.5525 52.3892H73.0128ZM75.0594 55.937C75.7942 55.937 76.4651 55.9448 77.1688 55.6689C78.6217 55.1076 79.1012 53.8215 79.2321 52.3892H80.3056L80.5437 52.1546V51.4887H79.2446C79.2321 51.1788 79.2029 50.8687 79.1695 50.5421C79.0659 49.7314 78.9406 48.9248 78.8187 48.1169L78.0668 48.2676L78.3758 50.0562C78.4218 50.3368 78.4635 50.6301 78.4929 50.94C78.548 52.0181 78.5882 53.2188 77.8914 54.1192C77.3353 54.8239 76.3845 55.0323 75.5315 55.0323H75.0594V55.937ZM80.3098 52.3892H80.8236C82.6363 52.3892 83.551 51.5892 83.551 49.9808C83.551 49.7463 83.5343 49.4614 83.5051 49.1514C83.4316 48.3728 83.297 47.5921 83.1792 46.8184L82.4441 46.9356C82.5702 47.7101 82.7044 48.4743 82.7825 49.2562C82.8442 49.8848 82.9363 50.733 82.3564 51.1494C81.8567 51.4899 81.1303 51.4887 80.5437 51.4887L80.3098 51.7233V52.3892ZM83.551 55.359C83.926 55.359 84.0648 55.1384 84.0648 54.7852C84.0648 54.4373 83.9176 54.2197 83.551 54.2197C83.369 54.2197 83.2037 54.2121 83.0624 54.3538C82.9621 54.4417 82.9162 54.5924 82.9162 54.7852C82.9162 54.9905 82.9621 55.1369 83.0624 55.225C83.199 55.3686 83.3711 55.359 83.551 55.359ZM82.6071 57.1182C82.7532 57.1182 82.8702 57.0721 82.9746 56.9841C83.156 56.8023 83.1562 56.3413 82.9746 56.159C82.812 56.0155 82.6709 56.025 82.4734 56.025C82.3398 56.025 82.2228 56.0668 82.1351 56.159C82.0306 56.2469 81.9889 56.381 81.9889 56.5694C81.9889 56.7621 82.0306 56.8962 82.1351 56.9841C82.2779 57.1273 82.4248 57.1182 82.6071 57.1182ZM81.663 55.359C82.0375 55.359 82.181 55.1403 82.181 54.7852C82.181 54.4351 82.0295 54.2197 81.663 54.2197C81.4809 54.2197 81.32 54.2119 81.1786 54.3538C81.0741 54.4417 81.0281 54.5924 81.0281 54.7852C81.0281 54.9905 81.0741 55.1369 81.1786 55.225C81.3153 55.3686 81.4831 55.359 81.663 55.359Z" fill="#0F2B0D"/>
</svg>
