<svg width="56" height="57" viewBox="0 0 56 57" fill="none" xmlns="http://www.w3.org/2000/svg">
<path fill-rule="evenodd" clip-rule="evenodd" d="M26.4939 21.7551C27.6834 21.7551 28.6477 22.7263 28.6477 23.9246C28.6477 25.1227 27.6834 26.094 26.4939 26.094C25.3046 26.094 24.3403 25.1227 24.3403 23.9246C24.3403 22.7263 25.3046 21.7551 26.4939 21.7551Z" fill="#3AAA34"/>
<path d="M26.4939 21.7551C27.6834 21.7551 28.6477 22.7263 28.6477 23.9246C28.6477 25.1227 27.6834 26.094 26.4939 26.094C25.3046 26.094 24.3403 25.1227 24.3403 23.9246C24.3403 22.7263 25.3046 21.7551 26.4939 21.7551Z" stroke="#419971" stroke-width="0.422434" stroke-miterlimit="22.9256"/>
<path fill-rule="evenodd" clip-rule="evenodd" d="M39.2675 22.5826C40.3835 22.5826 41.2883 23.4942 41.2883 24.6183C41.2883 25.7426 40.3835 26.6541 39.2675 26.6541C38.1513 26.6541 37.2466 25.7426 37.2466 24.6183C37.2466 23.4942 38.1513 22.5826 39.2675 22.5826Z" fill="#419971"/>
<path d="M39.2675 22.5826C40.3835 22.5826 41.2883 23.4942 41.2883 24.6183C41.2883 25.7426 40.3835 26.6541 39.2675 26.6541C38.1513 26.6541 37.2466 25.7426 37.2466 24.6183C37.2466 23.4942 38.1513 22.5826 39.2675 22.5826Z" stroke="#419971" stroke-width="0.422434" stroke-miterlimit="22.9256"/>
<path fill-rule="evenodd" clip-rule="evenodd" d="M9.53217 15.0806C10.7013 15.0806 11.6492 16.0355 11.6492 17.2132C11.6492 18.391 10.7013 19.3458 9.53217 19.3458C8.36291 19.3458 7.41504 18.391 7.41504 17.2132C7.41504 16.0355 8.36291 15.0806 9.53217 15.0806Z" fill="#3AAA34"/>
<path d="M9.53217 15.0806C10.7013 15.0806 11.6492 16.0355 11.6492 17.2132C11.6492 18.391 10.7013 19.3458 9.53217 19.3458C8.36291 19.3458 7.41504 18.391 7.41504 17.2132C7.41504 16.0355 8.36291 15.0806 9.53217 15.0806Z" stroke="#419971" stroke-width="0.422434" stroke-miterlimit="22.9256"/>
<path fill-rule="evenodd" clip-rule="evenodd" d="M18.2032 16.6642C19.3423 16.6642 20.2658 17.5944 20.2658 18.7419C20.2658 19.8892 19.3423 20.8196 18.2032 20.8196C17.0641 20.8196 16.1406 19.8892 16.1406 18.7419C16.1406 17.5944 17.0641 16.6642 18.2032 16.6642Z" fill="#419971"/>
<path d="M18.2032 16.6642C19.3423 16.6642 20.2658 17.5944 20.2658 18.7419C20.2658 19.8892 19.3423 20.8196 18.2032 20.8196C17.0641 20.8196 16.1406 19.8892 16.1406 18.7419C16.1406 17.5944 17.0641 16.6642 18.2032 16.6642Z" stroke="#419971" stroke-width="0.422434" stroke-miterlimit="22.9256"/>
<path fill-rule="evenodd" clip-rule="evenodd" d="M20.1311 7.92871C21.4352 7.92871 22.4926 8.99376 22.4926 10.3077C22.4926 11.6214 21.4352 12.6865 20.1311 12.6865C18.8269 12.6865 17.7695 11.6214 17.7695 10.3077C17.7695 8.99376 18.8269 7.92871 20.1311 7.92871Z" fill="#419971"/>
<path d="M20.1311 7.92871C21.4352 7.92871 22.4926 8.99376 22.4926 10.3077C22.4926 11.6214 21.4352 12.6865 20.1311 12.6865C18.8269 12.6865 17.7695 11.6214 17.7695 10.3077C17.7695 8.99376 18.8269 7.92871 20.1311 7.92871Z" stroke="#419971" stroke-width="0.422434" stroke-miterlimit="22.9256"/>
<path fill-rule="evenodd" clip-rule="evenodd" d="M36.4655 7.51133C37.7698 7.51133 38.8271 8.5764 38.8271 9.89028C38.8271 11.204 37.7698 12.269 36.4655 12.269C35.1613 12.269 34.104 11.204 34.104 9.89028C34.104 8.5764 35.1613 7.51133 36.4655 7.51133Z" fill="#3AAA34"/>
<path d="M36.4655 7.51133C37.7698 7.51133 38.8271 8.5764 38.8271 9.89028C38.8271 11.204 37.7698 12.269 36.4655 12.269C35.1613 12.269 34.104 11.204 34.104 9.89028C34.104 8.5764 35.1613 7.51133 36.4655 7.51133Z" stroke="#419971" stroke-width="0.422434" stroke-miterlimit="22.9256"/>
<path fill-rule="evenodd" clip-rule="evenodd" d="M33.6406 18.1549C34.6089 18.1549 35.3939 18.9456 35.3939 19.9209C35.3939 20.8965 34.6089 21.6873 33.6406 21.6873C32.6722 21.6873 31.8872 20.8965 31.8872 19.9209C31.8872 18.9456 32.6722 18.1549 33.6406 18.1549Z" fill="#419971"/>
<path d="M33.6406 18.1549C34.6089 18.1549 35.3939 18.9456 35.3939 19.9209C35.3939 20.8965 34.6089 21.6873 33.6406 21.6873C32.6722 21.6873 31.8872 20.8965 31.8872 19.9209C31.8872 18.9456 32.6722 18.1549 33.6406 18.1549Z" stroke="#419971" stroke-width="0.422434" stroke-miterlimit="22.9256"/>
<path fill-rule="evenodd" clip-rule="evenodd" d="M33.1761 29.0515C34.2351 29.0515 35.0935 29.9162 35.0935 30.9829C35.0935 32.0495 34.2351 32.9143 33.1761 32.9143C32.1173 32.9143 31.2588 32.0495 31.2588 30.9829C31.2588 29.9162 32.1173 29.0515 33.1761 29.0515Z" fill="#419971"/>
<path d="M33.1761 29.0515C34.2351 29.0515 35.0935 29.9162 35.0935 30.9829C35.0935 32.0495 34.2351 32.9143 33.1761 32.9143C32.1173 32.9143 31.2588 32.0495 31.2588 30.9829C31.2588 29.9162 32.1173 29.0515 33.1761 29.0515Z" stroke="#419971" stroke-width="0.422434" stroke-miterlimit="22.9256"/>
<path fill-rule="evenodd" clip-rule="evenodd" d="M11.9734 28.3674C13.2776 28.3674 14.3349 29.4324 14.3349 30.746C14.3349 32.0598 13.2776 33.1249 11.9734 33.1249C10.6691 33.1249 9.61182 32.0598 9.61182 30.746C9.61182 29.4324 10.6691 28.3674 11.9734 28.3674Z" fill="#3AAA34"/>
<path d="M11.9734 28.3674C13.2776 28.3674 14.3349 29.4324 14.3349 30.746C14.3349 32.0598 13.2776 33.1249 11.9734 33.1249C10.6691 33.1249 9.61182 32.0598 9.61182 30.746C9.61182 29.4324 10.6691 28.3674 11.9734 28.3674Z" stroke="#419971" stroke-width="0.422434" stroke-miterlimit="22.9256"/>
<path fill-rule="evenodd" clip-rule="evenodd" d="M26.759 12.9908C27.7878 12.9908 28.6219 13.8308 28.6219 14.8672C28.6219 15.9037 27.7878 16.7439 26.759 16.7439C25.7301 16.7439 24.896 15.9037 24.896 14.8672C24.896 13.8308 25.7301 12.9908 26.759 12.9908Z" fill="#419971"/>
<path d="M26.759 12.9908C27.7878 12.9908 28.6219 13.8308 28.6219 14.8672C28.6219 15.9037 27.7878 16.7439 26.759 16.7439C25.7301 16.7439 24.896 15.9037 24.896 14.8672C24.896 13.8308 25.7301 12.9908 26.759 12.9908Z" stroke="#419971" stroke-width="0.422434" stroke-miterlimit="22.9256"/>
<path fill-rule="evenodd" clip-rule="evenodd" d="M44.8694 11.1854C45.8981 11.1854 46.7322 12.0255 46.7322 13.0618C46.7322 14.0983 45.8981 14.9386 44.8694 14.9386C43.8404 14.9386 43.0063 14.0983 43.0063 13.0618C43.0063 12.0255 43.8404 11.1854 44.8694 11.1854Z" fill="#419971"/>
<path d="M44.8694 11.1854C45.8981 11.1854 46.7322 12.0255 46.7322 13.0618C46.7322 14.0983 45.8981 14.9386 44.8694 14.9386C43.8404 14.9386 43.0063 14.0983 43.0063 13.0618C43.0063 12.0255 43.8404 11.1854 44.8694 11.1854Z" stroke="#419971" stroke-width="0.422434" stroke-miterlimit="22.9256"/>
<path fill-rule="evenodd" clip-rule="evenodd" d="M26.6975 4.43802C27.7262 4.43802 28.5604 5.2783 28.5604 6.3146C28.5604 7.35107 27.7262 8.19116 26.6975 8.19116C25.6685 8.19116 24.8345 7.35107 24.8345 6.3146C24.8345 5.2783 25.6685 4.43802 26.6975 4.43802Z" fill="#419971"/>
<path d="M26.6975 4.43802C27.7262 4.43802 28.5604 5.27829 28.5604 6.3146C28.5604 7.35107 27.7262 8.19116 26.6975 8.19116C25.6685 8.19116 24.8345 7.35107 24.8345 6.3146C24.8345 5.27829 25.6685 4.43802 26.6975 4.43802Z" stroke="#419971" stroke-width="0.422434" stroke-miterlimit="22.9256"/>
<path fill-rule="evenodd" clip-rule="evenodd" d="M18.9747 25.3728C20.0036 25.3728 20.8377 26.2131 20.8377 27.2495C20.8377 28.2859 20.0036 29.126 18.9747 29.126C17.9459 29.126 17.1118 28.2859 17.1118 27.2495C17.1118 26.2131 17.9459 25.3728 18.9747 25.3728Z" fill="#419971"/>
<path d="M18.9747 25.3728C20.0036 25.3728 20.8377 26.2131 20.8377 27.2495C20.8377 28.2859 20.0036 29.126 18.9747 29.126C17.9459 29.126 17.1118 28.2859 17.1118 27.2495C17.1118 26.2131 17.9459 25.3728 18.9747 25.3728Z" stroke="#419971" stroke-width="0.422434" stroke-miterlimit="22.9256"/>
<path fill-rule="evenodd" clip-rule="evenodd" d="M13.3727 23.2914C14.4015 23.2914 15.2356 24.1315 15.2356 25.1678C15.2356 26.2043 14.4015 27.0446 13.3727 27.0446C12.3438 27.0446 11.5098 26.2043 11.5098 25.1678C11.5098 24.1315 12.3438 23.2914 13.3727 23.2914Z" fill="#419971"/>
<path d="M13.3727 23.2914C14.4015 23.2914 15.2356 24.1315 15.2356 25.1678C15.2356 26.2043 14.4015 27.0446 13.3727 27.0446C12.3438 27.0446 11.5098 26.2043 11.5098 25.1678C11.5098 24.1315 12.3438 23.2914 13.3727 23.2914Z" stroke="#419971" stroke-width="0.422434" stroke-miterlimit="22.9256"/>
<path fill-rule="evenodd" clip-rule="evenodd" d="M6.96119 23.6418C7.69915 23.6418 8.29738 24.2444 8.29738 24.9879C8.29738 25.7311 7.69915 26.3337 6.96119 26.3337C6.22323 26.3337 5.625 25.7311 5.625 24.9879C5.625 24.2444 6.22323 23.6418 6.96119 23.6418Z" fill="#419971"/>
<path d="M6.96119 23.6418C7.69915 23.6418 8.29738 24.2444 8.29738 24.9879C8.29738 25.7311 7.69915 26.3337 6.96119 26.3337C6.22323 26.3337 5.625 25.7311 5.625 24.9879C5.625 24.2444 6.22323 23.6418 6.96119 23.6418Z" stroke="#419971" stroke-width="0.422434" stroke-miterlimit="22.9256"/>
<path fill-rule="evenodd" clip-rule="evenodd" d="M28.3176 27.3347C29.0556 27.3347 29.6539 27.9373 29.6539 28.6806C29.6539 29.4242 29.0556 30.0267 28.3176 30.0267C27.5797 30.0267 26.9814 29.4242 26.9814 28.6806C26.9814 27.9373 27.5797 27.3347 28.3176 27.3347Z" fill="#419971"/>
<path d="M28.3176 27.3347C29.0556 27.3347 29.6539 27.9373 29.6539 28.6806C29.6539 29.4242 29.0556 30.0267 28.3176 30.0267C27.5797 30.0267 26.9814 29.4242 26.9814 28.6806C26.9814 27.9373 27.5797 27.3347 28.3176 27.3347Z" stroke="#419971" stroke-width="0.422434" stroke-miterlimit="22.9256"/>
<path fill-rule="evenodd" clip-rule="evenodd" d="M49.6257 18.8777C50.3638 18.8777 50.9619 19.4804 50.9619 20.2237C50.9619 20.9672 50.3638 21.5697 49.6257 21.5697C48.8878 21.5697 48.2896 20.9672 48.2896 20.2237C48.2896 19.4804 48.8878 18.8777 49.6257 18.8777Z" fill="#419971"/>
<path d="M49.6257 18.8777C50.3638 18.8777 50.9619 19.4804 50.9619 20.2237C50.9619 20.9672 50.3638 21.5697 49.6257 21.5697C48.8878 21.5697 48.2896 20.9672 48.2896 20.2237C48.2896 19.4804 48.8878 18.8777 49.6257 18.8777Z" stroke="#419971" stroke-width="0.422434" stroke-miterlimit="22.9256"/>
<path fill-rule="evenodd" clip-rule="evenodd" d="M48.7253 26.9123C49.7541 26.9123 50.5881 27.7526 50.5881 28.7888C50.5881 29.8252 49.7541 30.6655 48.7253 30.6655C47.6964 30.6655 46.8623 29.8252 46.8623 28.7888C46.8623 27.7526 47.6964 26.9123 48.7253 26.9123Z" fill="#3AAA34"/>
<path d="M48.7253 26.9123C49.7541 26.9123 50.5881 27.7526 50.5881 28.7888C50.5881 29.8252 49.7541 30.6655 48.7253 30.6655C47.6964 30.6655 46.8623 29.8252 46.8623 28.7888C46.8623 27.7526 47.6964 26.9123 48.7253 26.9123Z" stroke="#419971" stroke-width="0.422434" stroke-miterlimit="22.9256"/>
<path fill-rule="evenodd" clip-rule="evenodd" d="M12.4768 8.97124C13.2148 8.97124 13.813 9.57375 13.813 10.3172C13.813 11.0607 13.2148 11.6632 12.4768 11.6632C11.7389 11.6632 11.1406 11.0607 11.1406 10.3172C11.1406 9.57375 11.7389 8.97124 12.4768 8.97124Z" fill="#419971"/>
<path d="M12.4768 8.97124C13.2148 8.97124 13.813 9.57375 13.813 10.3172C13.813 11.0607 13.2148 11.6632 12.4768 11.6632C11.7389 11.6632 11.1406 11.0607 11.1406 10.3172C11.1406 9.57375 11.7389 8.97124 12.4768 8.97124Z" stroke="#419971" stroke-width="0.422434" stroke-miterlimit="22.9256"/>
<path fill-rule="evenodd" clip-rule="evenodd" d="M30.6662 35.3949C31.1478 35.3949 31.5383 35.7883 31.5383 36.2735C31.5383 36.7587 31.1478 37.152 30.6662 37.152C30.1845 37.152 29.7939 36.7587 29.7939 36.2735C29.7939 35.7883 30.1845 35.3949 30.6662 35.3949Z" fill="#419971"/>
<path d="M30.6662 35.3949C31.1478 35.3949 31.5383 35.7883 31.5383 36.2735C31.5383 36.7587 31.1478 37.152 30.6662 37.152C30.1845 37.152 29.7939 36.7587 29.7939 36.2735C29.7939 35.7883 30.1845 35.3949 30.6662 35.3949Z" stroke="#419971" stroke-width="0.422434" stroke-miterlimit="22.9256"/>
<path fill-rule="evenodd" clip-rule="evenodd" d="M43.2038 32.6733C43.6854 32.6733 44.0759 33.0667 44.0759 33.5518C44.0759 34.037 43.6854 34.4304 43.2038 34.4304C42.7221 34.4304 42.3315 34.037 42.3315 33.5518C42.3315 33.0667 42.7221 32.6733 43.2038 32.6733Z" fill="#419971"/>
<path d="M43.2038 32.6733C43.6854 32.6733 44.0759 33.0667 44.0759 33.5518C44.0759 34.037 43.6854 34.4304 43.2038 34.4304C42.7221 34.4304 42.3315 34.037 42.3315 33.5518C42.3315 33.0667 42.7221 32.6733 43.2038 32.6733Z" stroke="#419971" stroke-width="0.422434" stroke-miterlimit="22.9256"/>
<path d="M7.27246 23.6786L8.88311 19.296" stroke="#419971" stroke-width="0.422434" stroke-miterlimit="22.9256"/>
<path d="M10.3154 19.1747L12.5223 23.4977" stroke="#419971" stroke-width="0.422434" stroke-miterlimit="22.9256"/>
<path d="M11.5801 17.7555L16.2505 18.4374" stroke="#419971" stroke-width="0.422434" stroke-miterlimit="22.9256"/>
<path d="M10.3994 15.1799L11.9564 11.5573" stroke="#419971" stroke-width="0.422434" stroke-miterlimit="22.9256"/>
<path d="M13.249 11.4158L17.0808 17.0847" stroke="#419971" stroke-width="0.422434" stroke-miterlimit="22.9256"/>
<path d="M19.5289 12.6084L18.7407 16.7355" stroke="#419971" stroke-width="0.422434" stroke-miterlimit="22.9256"/>
<path d="M13.8125 10.3173L17.7693 10.3078" stroke="#419971" stroke-width="0.422434" stroke-miterlimit="22.9256"/>
<path d="M22.0991 8.99304L25.1442 7.35172" stroke="#419971" stroke-width="0.422434" stroke-miterlimit="22.9256"/>
<path d="M28.3433 7.19373L34.2649 9.02466" stroke="#419971" stroke-width="0.422434" stroke-miterlimit="22.9256"/>
<path d="M38.6328 10.8362L43.114 12.432" stroke="#419971" stroke-width="0.422434" stroke-miterlimit="22.9256"/>
<path d="M45.7383 14.7221L49.034 19.0165" stroke="#419971" stroke-width="0.422434" stroke-miterlimit="22.9256"/>
<path d="M49.476 21.5614L49.0557 26.9417" stroke="#419971" stroke-width="0.422434" stroke-miterlimit="22.9256"/>
<path d="M35.7264 12.1502L33.4814 18.3314" stroke="#419971" stroke-width="0.422434" stroke-miterlimit="22.9256"/>
<path d="M35.085 19.2211L43.2764 14.0356" stroke="#419971" stroke-width="0.422434" stroke-miterlimit="22.9256"/>
<path d="M44.0111 14.8341L39.6606 22.7081" stroke="#419971" stroke-width="0.422434" stroke-miterlimit="22.9256"/>
<path d="M41.0103 23.7257L48.3713 20.6881" stroke="#419971" stroke-width="0.422434" stroke-miterlimit="22.9256"/>
<path d="M26.6973 8.19106L26.7418 12.9908" stroke="#419971" stroke-width="0.422434" stroke-miterlimit="22.9256"/>
<path d="M28.1709 13.6431L34.4563 11.1415" stroke="#419971" stroke-width="0.422434" stroke-miterlimit="22.9256"/>
<path d="M24.8188 22.561L19.8472 19.9966" stroke="#419971" stroke-width="0.422434" stroke-miterlimit="22.9256"/>
<path d="M26.5974 16.7369L26.4937 21.755" stroke="#419971" stroke-width="0.422434" stroke-miterlimit="22.9256"/>
<path d="M20.0312 17.7795L25.0092 15.5126" stroke="#419971" stroke-width="0.422434" stroke-miterlimit="22.9256"/>
<path d="M31.9917 20.9195L28.4404 22.7482" stroke="#419971" stroke-width="0.422434" stroke-miterlimit="22.9256"/>
<path d="M40.7852 25.9625L46.9424 28.2428" stroke="#419971" stroke-width="0.422434" stroke-miterlimit="22.9256"/>
<path d="M17.0684 20.609L14.6069 23.7621" stroke="#419971" stroke-width="0.422434" stroke-miterlimit="22.9256"/>
<path d="M7.72461 26.0924L10.4673 28.7715" stroke="#419971" stroke-width="0.422434" stroke-miterlimit="22.9256"/>
<path d="M32.8958 21.6553L28.8213 27.7714" stroke="#419971" stroke-width="0.422434" stroke-miterlimit="22.9256"/>
<path d="M29.5781 28.2325L37.3116 25.557" stroke="#419971" stroke-width="0.422434" stroke-miterlimit="22.9256"/>
<path d="M27.1055 26.0916L27.7088 27.4823" stroke="#419971" stroke-width="0.422434" stroke-miterlimit="22.9256"/>
<path d="M34.5737 29.5092L38.1988 26.3463" stroke="#419971" stroke-width="0.422434" stroke-miterlimit="22.9256"/>
<path d="M35.0205 31.55L42.3774 33.2699" stroke="#419971" stroke-width="0.422434" stroke-miterlimit="22.9256"/>
<path d="M32.5711 32.6663L31.189 35.5704" stroke="#419971" stroke-width="0.422434" stroke-miterlimit="22.9256"/>
<path d="M47.4389 30.3372L43.8379 32.9486" stroke="#419971" stroke-width="0.422434" stroke-miterlimit="22.9256"/>
<path d="M42.4522 33.9991L31.5039 36.5171" stroke="#419971" stroke-width="0.422434" stroke-miterlimit="22.9256"/>
<path d="M15.0723 25.9372L17.1508 26.8646" stroke="#419971" stroke-width="0.422434" stroke-miterlimit="22.9256"/>
<path d="M24.6163 24.9881L20.7339 26.5089" stroke="#419971" stroke-width="0.422434" stroke-miterlimit="22.9256"/>
<path fill-rule="evenodd" clip-rule="evenodd" d="M27.771 1.00003C42.8089 1.00003 55 13.2805 55 28.4286C55 43.5768 42.8089 55.8572 27.771 55.8572C12.7331 55.8572 0.541992 43.5768 0.541992 28.4286C0.541992 13.2805 12.7331 1.00003 27.771 1.00003ZM23.1124 33.7918C23.631 31.235 24.2691 28.4967 25.3451 26.2004C23.2284 27.356 22.1292 32.3133 21.7842 34.3697C21.2991 32.8981 20.5208 29.8234 19.0985 29.1619C19.9013 32.1761 20.5426 33.1235 20.5703 36.5175C20.4593 36.2533 19.9736 35.6226 19.2736 34.8885C17.9674 33.519 16.089 32.26 14.3301 31.8825C13.9527 32.2236 20.6846 34.8254 20.9015 44.5573C21.021 49.9279 18.5091 54.1558 13.0088 50.1131C6.26776 45.1587 1.6069 37.4637 1.6069 28.4397C1.6069 13.8839 13.3211 2.08367 27.771 2.08367C42.2209 2.08367 53.9351 13.8839 53.9351 28.4397C53.9351 38.8373 47.9572 47.8291 39.2751 52.1178C38.5433 52.4793 37.7913 52.8062 37.0237 53.1001C27.7345 56.6574 23.9966 51.6836 24.4548 45.0034C24.948 37.8142 26.5644 36.2657 31.2247 31.8586C27.059 32.8435 25.0572 36.1298 24.1723 36.7037C24.5138 35.0044 25.0733 33.7563 26.3119 31.8619C27.1603 30.5641 27.3587 30.4213 27.5286 30.0247C25.567 30.6239 24.1806 32.412 23.3925 34.0914C22.9163 35.1063 23.0246 34.2252 23.1124 33.7918Z" fill="#419971"/>
<path d="M27.771 1.00003C42.8089 1.00003 55 13.2805 55 28.4286C55 43.5768 42.8089 55.8572 27.771 55.8572C12.7331 55.8572 0.541992 43.5768 0.541992 28.4286C0.541992 13.2805 12.7331 1.00003 27.771 1.00003ZM23.1124 33.7918C23.631 31.235 24.2691 28.4967 25.3451 26.2004C23.2284 27.356 22.1292 32.3133 21.7842 34.3697C21.2991 32.8981 20.5208 29.8234 19.0985 29.1619C19.9013 32.1761 20.5426 33.1235 20.5703 36.5175C20.4593 36.2533 19.9736 35.6226 19.2736 34.8885C17.9674 33.519 16.089 32.26 14.3301 31.8825C13.9527 32.2236 20.6846 34.8254 20.9015 44.5573C21.021 49.9279 18.5091 54.1558 13.0088 50.1131C6.26776 45.1587 1.6069 37.4637 1.6069 28.4397C1.6069 13.8839 13.3211 2.08367 27.771 2.08367C42.2209 2.08367 53.9351 13.8839 53.9351 28.4397C53.9351 38.8373 47.9572 47.8291 39.2751 52.1178C38.5433 52.4793 37.7913 52.8062 37.0237 53.1001C27.7345 56.6574 23.9966 51.6836 24.4548 45.0034C24.948 37.8142 26.5644 36.2657 31.2247 31.8586C27.059 32.8435 25.0572 36.1298 24.1723 36.7037C24.5138 35.0044 25.0733 33.7563 26.3119 31.8619C27.1603 30.5641 27.3587 30.4213 27.5286 30.0247C25.567 30.6239 24.1806 32.412 23.3925 34.0914C22.9163 35.1063 23.0246 34.2252 23.1124 33.7918Z" stroke="#419971" stroke-width="0.422434" stroke-miterlimit="22.9256"/>
</svg>
